<svg xmlns="http://www.w3.org/2000/svg" width="407.534" height="716.052" viewBox="0 0 407.534 716.052"><g transform="translate(-750.23 -850.561)"><g transform="translate(750.23 850.561)"><g transform="translate(0)"><g transform="translate(135.35 242.886)"><path d="M1163.435,1309.331a24.664,24.664,0,1,1-30.677,16.6A24.666,24.666,0,0,1,1163.435,1309.331Z" transform="translate(-1090.588 -1308.299)" fill="#08c8a9" fill-rule="evenodd"/><path d="M1123.35,1427.559a9.215,9.215,0,1,1-11.461,6.2A9.216,9.216,0,0,1,1123.35,1427.559Z" transform="translate(-1081.12 -1363.951)" fill="#fb5f03" fill-rule="evenodd"/><path d="M1061.549,1341.5a5.579,5.579,0,1,1-6.939,3.755A5.578,5.578,0,0,1,1061.549,1341.5Z" transform="translate(-1054.376 -1323.731)" fill="#08c8a9" fill-rule="evenodd"/></g><g transform="translate(164.905 492.029)"><path d="M1256.4,1703.916c-3.761-.132-25.307,20.6-27.081,36.116-3.552,31.078,22.853,40.1,41.206,32.906C1291.422,1764.755,1293.23,1727.008,1256.4,1703.916Z" transform="translate(-1165.679 -1692.343)" fill="#e62485" fill-rule="evenodd"/><path d="M1234.39,1746.85c-2.648,4.463-4.591,9.065-5.074,13.282a40.67,40.67,0,0,0,.676,14.272l25.263-4.344Z" transform="translate(-1165.679 -1712.443)" fill="#f60" fill-rule="evenodd"/><path d="M1306.953,1760.111c.323-10.361-3.913-22.46-14.024-33.318l-17.767,36.952Z" transform="translate(-1187.293 -1703.053)" fill="#feba00" fill-rule="evenodd"/><path d="M1270.291,1759.293c-1.721-.06-11.567,9.414-12.379,16.507-1.623,14.206,10.447,18.325,18.834,15.04C1286.3,1787.1,1287.124,1769.847,1270.291,1759.293Z" transform="translate(-1179.148 -1718.268)" fill="#feefd1" fill-rule="evenodd"/><path d="M1255.863,1801.024c-4.261-.22-28.674,34.571-30.685,60.627-4.024,52.163,25.895,67.3,46.691,55.234C1295.547,1903.148,1297.594,1839.786,1255.863,1801.024Z" transform="translate(-1163.721 -1737.805)" fill="#ff9d00" fill-rule="evenodd"/><path d="M1283.323,1920.788a27.908,27.908,0,0,0,15.939-3.848c23.666-13.729,25.722-77.028-15.939-115.8Z" transform="translate(-1191.114 -1737.862)" fill="#d38200" fill-rule="evenodd"/><g transform="translate(72.861 125.479)"><path d="M1366.1,1953.893c-.052,4.265-36.23,27.266-62.294,28.236-52.181,1.946-65.351-28.538-52.022-48.828C1266.964,1910.2,1330.165,1910.674,1366.1,1953.893Z" transform="translate(-1246.943 -1918.089)" fill="#ff9d00" fill-rule="evenodd"/><path d="M1363.4,1978.835c-8.873,7.777-37.77,24.019-59.585,24.832-44.68,1.666-60.756-20.444-56.086-39.573Z" transform="translate(-1246.945 -1939.627)" fill="#d38200" fill-rule="evenodd"/></g><g transform="translate(0 125.479)"><path d="M1109.946,1953.893c.052,4.265,36.23,27.266,62.294,28.236,52.182,1.946,65.352-28.538,52.023-48.828C1209.086,1910.2,1145.885,1910.674,1109.946,1953.893Z" transform="translate(-1109.946 -1918.089)" fill="#ff9d00" fill-rule="evenodd"/><path d="M1115.041,1978.835c8.875,7.777,37.77,24.019,59.584,24.832,44.68,1.666,60.757-20.444,56.087-39.573Z" transform="translate(-1112.332 -1939.627)" fill="#b46f00" fill-rule="evenodd"/></g><g transform="translate(83.773 85.23)"><path d="M1343.8,1842.411c4.185,2.472,10.531,43.911-.295,64.877-21.674,41.972-57.718,34.915-71.72,12.913C1255.842,1895.15,1284.888,1845.925,1343.8,1842.411Z" transform="translate(-1267.46 -1842.411)" fill="#ff9d00" fill-rule="evenodd"/><path d="M1356.165,1850.052c3.663,11.381,6.632,43.264-2.429,60.813-18.557,35.941-47.651,35.928-64.421,21.37Z" transform="translate(-1277.692 -1845.988)" fill="#d38200" fill-rule="evenodd"/></g><g transform="translate(25.478 85.23)"><path d="M1164.41,1842.411c-3.8,2.244-9.565,39.881.267,58.922,19.685,38.123,52.421,31.713,65.138,11.729C1244.295,1890.31,1217.915,1845.6,1164.41,1842.411Z" transform="translate(-1158.501 -1842.411)" fill="#ff9d00" fill-rule="evenodd"/><path d="M1160.428,1859.18c-3.327,10.337-4.627,34.069,3.6,50,16.853,32.64,48.855,40.649,64.088,27.427Z" transform="translate(-1157.851 -1850.262)" fill="#d38200" fill-rule="evenodd"/></g><g transform="translate(28.219 85.23)"><path d="M1166.173,1842.411c-1.029.607-2.2,3.809-3.168,8.528l31.791,37.7,10.977-32.941C1194.617,1848.148,1183.45,1843.442,1166.173,1842.411Z" transform="translate(-1163.005 -1842.411)" fill="#f7f" fill-rule="evenodd"/></g><path d="M1223,1898.061l9.829-32.766,23.243,21.193Z" transform="translate(-1162.873 -1767.894)" fill="#9a009a" fill-rule="evenodd"/><path d="M1222.238,1916.433l33.455-11.5,2.09,53.319Z" transform="translate(-1162.516 -1786.451)" fill="#22b6cd" fill-rule="evenodd"/><path d="M1271.482,1905.882l2.069,52.814-17.63-20.743Z" transform="translate(-1178.286 -1786.895)" fill="#04889d" fill-rule="evenodd"/><circle cx="11.401" cy="11.401" r="11.401" transform="translate(0.599)" fill="#08c8a9"/><path d="M1378.411,1767.839a5.284,5.284,0,1,0-5.284-5.285A5.292,5.292,0,0,0,1378.411,1767.839Z" transform="translate(-1233.157 -1717.322)" fill="#710391" fill-rule="evenodd"/><path d="M1221.608,1731.293a4.9,4.9,0,1,0-4.9-4.9A4.907,4.907,0,0,0,1221.608,1731.293Z" transform="translate(-1159.929 -1700.574)" fill="#fed700" fill-rule="evenodd"/></g><g transform="translate(144.893 71.671)"><path d="M1072.364,1076.517a33.141,33.141,0,1,1,31.4,34.8A33.14,33.14,0,0,1,1072.364,1076.517Z" transform="translate(-1072.32 -1045.074)" fill="#08adc8" fill-rule="evenodd"/><path d="M1137.99,1072.465a33.141,33.141,0,0,1-54.815,37.265Z" transform="translate(-1077.402 -1057.897)" fill="#068a9f" fill-rule="evenodd"/></g><path d="M923.494,1045.389c-3.174-.11-21.36,17.383-22.858,30.485-3,26.231,19.289,33.842,34.78,27.775C953.057,1096.739,954.581,1064.88,923.494,1045.389Z" transform="translate(-846.923 -973.55)" fill="#e62485" fill-rule="evenodd"/><path d="M904.92,1081.629a29.616,29.616,0,0,0-4.283,11.211,34.3,34.3,0,0,0,.57,12.046l21.323-3.667Z" transform="translate(-846.924 -990.516)" fill="#f60" fill-rule="evenodd"/><path d="M966.163,1092.822c.272-8.746-3.3-18.957-11.837-28.122l-15,31.189Z" transform="translate(-865.167 -982.591)" fill="#feba00" fill-rule="evenodd"/><path d="M935.22,1092.13c-1.449-.05-9.764,7.945-10.446,13.934-1.371,11.989,8.815,15.467,15.9,12.694C948.732,1115.6,949.429,1101.038,935.22,1092.13Z" transform="translate(-858.293 -995.432)" fill="#feefd1" fill-rule="evenodd"/><path d="M923.044,1127.353c-3.6-.185-24.2,29.179-25.9,51.17-3.4,44.03,21.855,56.806,39.409,46.622C956.538,1213.55,958.266,1160.07,923.044,1127.353Z" transform="translate(-845.271 -1011.922)" fill="#ff9d00" fill-rule="evenodd"/><path d="M946.221,1228.441a23.578,23.578,0,0,0,13.452-3.249c19.976-11.588,21.712-65.016-13.452-97.738Z" transform="translate(-868.392 -1011.97)" fill="#d38200" fill-rule="evenodd"/><g transform="translate(61.497 167.982)"><path d="M1016.091,1256.383c-.045,3.6-30.579,23.012-52.58,23.832-44.044,1.642-55.16-24.087-43.908-41.212C932.412,1219.5,985.757,1219.9,1016.091,1256.383Z" transform="translate(-915.513 -1226.162)" fill="#ff9d00" fill-rule="evenodd"/><path d="M1013.8,1277.434c-7.49,6.563-31.879,20.272-50.291,20.959-37.713,1.407-51.281-17.255-47.341-33.4Z" transform="translate(-915.515 -1244.34)" fill="#d38200" fill-rule="evenodd"/></g><g transform="translate(0 167.982)"><path d="M799.883,1256.383c.042,3.6,30.579,23.012,52.578,23.832,44.043,1.642,55.159-24.087,43.91-41.212C883.561,1219.5,830.218,1219.9,799.883,1256.383Z" transform="translate(-799.883 -1226.162)" fill="#ff9d00" fill-rule="evenodd"/><path d="M804.183,1277.434c7.49,6.563,31.879,20.272,50.292,20.959,37.714,1.407,51.28-17.255,47.34-33.4Z" transform="translate(-801.896 -1244.34)" fill="#b46f00" fill-rule="evenodd"/></g><g transform="translate(70.708 134.009)"><path d="M997.264,1162.286c3.535,2.086,8.891,37.063-.248,54.758-18.293,35.428-48.715,29.47-60.533,10.9C923.026,1206.8,947.541,1165.253,997.264,1162.286Z" transform="translate(-932.832 -1162.286)" fill="#ff9d00" fill-rule="evenodd"/><path d="M1007.7,1168.733c3.092,9.607,5.6,36.519-2.052,51.33-15.663,30.335-40.22,30.326-54.374,18.037Z" transform="translate(-941.468 -1165.304)" fill="#d38200" fill-rule="evenodd"/></g><g transform="translate(21.504 134.009)"><path d="M845.852,1162.286c-3.209,1.894-8.072,33.661.226,49.734,16.614,32.176,44.246,26.766,54.98,9.9C913.28,1202.715,891.012,1164.98,845.852,1162.286Z" transform="translate(-840.865 -1162.286)" fill="#ff9d00" fill-rule="evenodd"/><path d="M842.492,1176.44c-2.809,8.723-3.906,28.756,3.038,42.206,14.225,27.549,41.237,34.309,54.092,23.148Z" transform="translate(-840.316 -1168.912)" fill="#d38200" fill-rule="evenodd"/></g><g transform="translate(23.818 134.009)"><path d="M847.341,1162.285c-.868.513-1.857,3.216-2.674,7.2l26.833,31.823,9.265-27.8C871.347,1167.128,861.923,1163.155,847.341,1162.285Z" transform="translate(-844.667 -1162.285)" fill="#f7f" fill-rule="evenodd"/></g><path d="M895.3,1209.256l8.3-27.656,19.616,17.888Z" transform="translate(-844.554 -1037.319)" fill="#9a009a" fill-rule="evenodd"/><path d="M894.662,1224.764l28.236-9.707,1.765,45Z" transform="translate(-844.255 -1052.982)" fill="#22b6cd" fill-rule="evenodd"/><path d="M936.225,1215.859l1.747,44.578-14.881-17.508Z" transform="translate(-857.564 -1053.357)" fill="#04889d" fill-rule="evenodd"/><path d="M810.455,1046.271a9.623,9.623,0,1,0-9.623-9.622A9.64,9.64,0,0,0,810.455,1046.271Z" transform="translate(-800.327 -964.953)" fill="#08c8a9" fill-rule="evenodd"/><path d="M986.9,920.611a5.149,5.149,0,1,0-5.149-5.148A5.159,5.159,0,0,0,986.9,920.611Z" transform="translate(-885.026 -910.314)" fill="#a03ba0" fill-rule="evenodd"/><path d="M894.13,1068.5a4.133,4.133,0,1,0-4.134-4.132A4.141,4.141,0,0,0,894.13,1068.5Z" transform="translate(-842.07 -980.498)" fill="#fed700" fill-rule="evenodd"/><g transform="translate(128.068 317.524)"><g transform="translate(33.717 18.186)"><path d="M1150.656,1544.62a46.577,46.577,0,1,0-46.577-46.577A46.666,46.666,0,0,0,1150.656,1544.62Z" transform="translate(-1104.079 -1451.465)" fill="#cb8902" fill-rule="evenodd"/><path d="M1178.7,1543.6a46.578,46.578,0,0,1-56.253-74.253Z" transform="translate(-1104.079 -1459.839)" fill="#a26d02" fill-rule="evenodd"/></g><g transform="translate(0 0)"><path d="M1172.586,1506.539c-2.706-.094-18.2,14.811-19.48,25.975-2.553,22.351,16.438,28.837,29.638,23.668C1197.774,1550.295,1199.072,1523.146,1172.586,1506.539Z" transform="translate(-1093.205 -1459.062)" fill="#fdfc00" fill-rule="evenodd"/><path d="M1156.756,1537.416a25.25,25.25,0,0,0-3.649,9.553,29.23,29.23,0,0,0,.486,10.265l18.17-3.123Z" transform="translate(-1093.206 -1473.518)" fill="#f60" fill-rule="evenodd"/><path d="M1208.944,1546.955c.233-7.453-2.814-16.155-10.087-23.963l-12.776,26.577Z" transform="translate(-1108.752 -1466.765)" fill="#feba00" fill-rule="evenodd"/><path d="M1182.577,1546.367c-1.238-.042-8.319,6.77-8.9,11.872-1.167,10.215,7.512,13.18,13.546,10.816C1194.089,1566.367,1194.684,1553.958,1182.577,1546.367Z" transform="translate(-1102.894 -1477.708)" fill="#feefd1" fill-rule="evenodd"/><path d="M1172.2,1576.379c-3.066-.157-20.625,24.864-22.071,43.6-2.894,37.518,18.624,48.4,33.58,39.727C1200.742,1649.827,1202.212,1604.256,1172.2,1576.379Z" transform="translate(-1091.798 -1491.758)" fill="#c448c4" fill-rule="evenodd"/><path d="M1191.948,1662.517a20.075,20.075,0,0,0,11.463-2.767c17.021-9.873,18.5-55.4-11.463-83.282Z" transform="translate(-1111.499 -1491.8)" fill="#a03ba0" fill-rule="evenodd"/><g transform="translate(66.533 129.399)"><path d="M1251.486,1686.324c-.038,3.068-26.057,19.609-44.8,20.31-37.531,1.4-47-20.525-37.416-35.119C1180.183,1654.9,1225.637,1655.242,1251.486,1686.324Z" transform="translate(-1165.782 -1660.575)" fill="#c448c4" fill-rule="evenodd"/><path d="M1249.538,1704.265c-6.381,5.592-27.163,17.274-42.852,17.86-32.135,1.2-43.7-14.706-40.34-28.462Z" transform="translate(-1165.785 -1676.065)" fill="#a03ba0" fill-rule="evenodd"/></g><g transform="translate(14.132 129.399)"><path d="M1067.254,1686.324c.038,3.068,26.057,19.609,44.8,20.31,37.529,1.4,47-20.525,37.415-35.119C1138.558,1654.9,1093.1,1655.242,1067.254,1686.324Z" transform="translate(-1067.254 -1660.575)" fill="#c448c4" fill-rule="evenodd"/><path d="M1070.919,1704.265c6.383,5.592,27.165,17.274,42.854,17.86,32.135,1.2,43.7-14.706,40.338-28.462Z" transform="translate(-1068.97 -1676.065)" fill="#873187" fill-rule="evenodd"/></g><g transform="translate(74.382 100.452)"><path d="M1235.444,1606.146c3.011,1.776,7.574,31.581-.212,46.66-15.587,30.189-41.51,25.112-51.58,9.287C1172.185,1644.076,1193.075,1608.674,1235.444,1606.146Z" transform="translate(-1180.541 -1606.146)" fill="#c448c4" fill-rule="evenodd"/><path d="M1244.338,1611.64c2.636,8.185,4.771,31.117-1.747,43.738-13.347,25.85-34.27,25.841-46.333,15.37Z" transform="translate(-1187.899 -1608.718)" fill="#a03ba0" fill-rule="evenodd"/></g><g transform="translate(32.456 100.452)"><path d="M1106.427,1606.146c-2.735,1.614-6.879,28.682.191,42.378,14.157,27.418,37.7,22.807,46.848,8.436C1163.881,1640.6,1144.908,1608.442,1106.427,1606.146Z" transform="translate(-1102.176 -1606.146)" fill="#c448c4" fill-rule="evenodd"/><path d="M1103.561,1618.205c-2.393,7.435-3.328,24.5,2.59,35.965,12.121,23.474,35.136,29.234,46.093,19.726Z" transform="translate(-1101.708 -1611.792)" fill="#a03ba0" fill-rule="evenodd"/></g><g transform="translate(34.427 100.452)"><path d="M1107.7,1606.146c-.741.437-1.583,2.739-2.28,6.133l22.865,27.117,7.894-23.693C1128.15,1610.273,1120.12,1606.887,1107.7,1606.146Z" transform="translate(-1105.415 -1606.146)" fill="#df9fdf" fill-rule="evenodd"/></g><path d="M1148.564,1646.171l7.069-23.565,16.716,15.243Z" transform="translate(-1091.188 -1513.4)" fill="#732a73" fill-rule="evenodd"/><path d="M1148.017,1659.385l24.061-8.271,1.5,38.347Z" transform="translate(-1090.932 -1526.746)" fill="#22b5cd" fill-rule="evenodd"/><path d="M1183.433,1651.8l1.489,37.984-12.68-14.918Z" transform="translate(-1102.273 -1527.066)" fill="#04879c" fill-rule="evenodd"/><path d="M1076.266,1507.29a8.2,8.2,0,1,0-8.2-8.2A8.217,8.217,0,0,0,1076.266,1507.29Z" transform="translate(-1053.502 -1451.735)" fill="#08c8a9" fill-rule="evenodd"/><path d="M1220.443,1423.681a3.205,3.205,0,1,0-3.2-3.205A3.211,3.211,0,0,0,1220.443,1423.681Z" transform="translate(-1123.339 -1417.271)" fill="#e62485" fill-rule="evenodd"/><path d="M1044.2,1531.823a3.523,3.523,0,1,0-3.521-3.522A3.529,3.529,0,0,0,1044.2,1531.823Z" transform="translate(-1040.683 -1467.601)" fill="#fed700" fill-rule="evenodd"/></g></g><g transform="translate(41.1 462.788)"><circle cx="43.261" cy="43.261" r="43.261" transform="translate(19.077 84.162) rotate(-76.585)" fill="#08adc8"/><path d="M998.993,1729.407a43.261,43.261,0,0,1-52.247-68.965Z" transform="translate(-901.749 -1642.749)" fill="#068a9f" fill-rule="evenodd"/><path d="M996.154,1701.074c-2.366-.1-15.914,15.171-17.03,26.6-2.234,22.89,14.369,29.534,25.911,24.237C1018.177,1745.888,1019.312,1718.083,996.154,1701.074Z" transform="translate(-924.8 -1661.771)" fill="#feefd1" fill-rule="evenodd"/><path d="M1004.889,1748.72c-1.082-.045-7.273,6.934-7.783,12.16-1.021,10.462,6.568,13.5,11.844,11.077C1014.956,1769.2,1015.475,1756.494,1004.889,1748.72Z" transform="translate(-933.27 -1684.077)" fill="#dce000" fill-rule="evenodd"/><g transform="translate(0 102.2)"><path d="M1017.939,1844.551q.166,2.049.17,4.14c0,30.04-26.487,54.392-59.159,54.392s-59.16-24.352-59.16-54.392q0-2.09.17-4.14Z" transform="translate(-887.754 -1831.142)" fill="#e22148" fill-rule="evenodd"/><path d="M1016.783,1852.359q.144,1.6.146,3.242c0,23.168-22.08,41.949-49.316,41.949S918.3,1878.769,918.3,1855.6q0-1.635.145-3.242Z" transform="translate(-896.418 -1834.798)" fill="#c83c00" fill-rule="evenodd"/><path d="M1017.721,1885.69a52.984,52.984,0,0,1-8.513,14.78H914.357a53.012,53.012,0,0,1-8.514-14.78Z" transform="translate(-890.589 -1850.402)" fill="#e32183" fill-rule="evenodd"/><path d="M1018.1,1857.893a50.379,50.379,0,0,1-3.132,14.78H903.086a50.309,50.309,0,0,1-3.133-14.78Z" transform="translate(-887.831 -1837.388)" fill="#ffb200" fill-rule="evenodd"/><g transform="translate(55.377 16.604)"><rect width="15.818" height="33.693" fill="#710391"/><rect width="15.816" height="33.693" transform="translate(15.818)" fill="#d60e10"/></g><g transform="translate(55.377 16.604)"><rect width="15.818" height="18.47" fill="#dbff37"/><rect width="15.816" height="18.47" transform="translate(15.818)" fill="#df8259"/></g><g transform="translate(15.255 35.288)"><g transform="translate(4.842 9.686)"><path d="M915.8,1903.9v1.294q-.434-.64-.849-1.294Z" transform="translate(-914.948 -1903.902)" fill="#ff4c00" fill-rule="evenodd"/><path d="M916.544,1903.9v1.294q1.326,1.957,2.823,3.8h12.995V1903.9Z" transform="translate(-915.695 -1903.902)" fill="#ff4c00" fill-rule="evenodd"/></g><path d="M911.534,1885.69v9.683h-.851a52.318,52.318,0,0,1-4.841-9.683Z" transform="translate(-905.843 -1885.69)" fill="#ff4c00" fill-rule="evenodd"/><rect width="15.818" height="9.683" transform="translate(5.691)" fill="#ff4c00"/></g><rect width="142.387" height="20.504" fill="#e22148"/></g></g><path d="M998.933,1109.01H908.778v-2.51q10.43,0,17.845-.7t10.2-1.738q2.784-1.044,3.245-1.97.926-1.621.926-8.574V974.781q0-6.489-.926-8.344-.465-.927-3.015-1.853-7.415-2.781-28.274-2.781v-2.28h90.388q26.19,0,47.279,19.236,24.335,22.017,24.335,56.318,0,33.838-21.554,54.465-20.4,19.468-50.293,19.468Zm0-2.51q22.076,0,32.139-17.845,10.08-17.846,10.082-53.577,0-33.838-10.2-52.88-10.892-20.4-32.023-20.4-11.122,0-17.035.347a31.325,31.325,0,0,0-8.342,1.274,5.485,5.485,0,0,0-3.245,2.667q-.809,1.736-.812,8.69v118.741q0,6.72.812,8.806a5.247,5.247,0,0,0,3.129,3.013q2.318.928,9.966,1.044T998.933,1106.5Z" transform="translate(-850.863 -933.352)" fill="#fff"/><path d="M998.933,1109.01H908.778v-2.51q10.43,0,17.845-.7t10.2-1.738q2.784-1.044,3.245-1.97.926-1.621.926-8.574V974.781q0-6.489-.926-8.344-.465-.927-3.015-1.853-7.415-2.781-28.274-2.781v-2.28h90.388q26.19,0,47.279,19.236,24.335,22.017,24.335,56.318,0,33.838-21.554,54.465-20.4,19.468-50.293,19.468Zm0-2.51q22.076,0,32.139-17.845,10.08-17.846,10.082-53.577,0-33.838-10.2-52.88-10.892-20.4-32.023-20.4-11.122,0-17.035.347a31.325,31.325,0,0,0-8.342,1.274,5.485,5.485,0,0,0-3.245,2.667q-.809,1.736-.812,8.69v118.741q0,6.72.812,8.806a5.247,5.247,0,0,0,3.129,3.013q2.318.928,9.966,1.044T998.933,1106.5Z" transform="translate(-850.863 -933.352)" fill="none" stroke="#fff" stroke-miterlimit="22.926" stroke-width="0.216"/><path d="M1278.538,1082.768v100.3q0,5.656.78,7.217a4.444,4.444,0,0,0,2.34,1.559q5.656,2.147,23.207,2.145v2.114h-76.838v-2.114q8.385,0,14.529-.585a36.041,36.041,0,0,0,8.385-1.463,5.372,5.372,0,0,0,2.927-2.145q.681-1.269.681-6.729v-100.3q0-5.46-.778-6.825-.393-.78-2.537-1.561-5.657-2.145-23.208-2.145v-1.918h77.033v1.918q-8.386,0-14.529.585a36.694,36.694,0,0,0-8.679,1.56l-1.949.78Q1278.537,1076.333,1278.538,1082.768Z" transform="translate(-1000.322 -985.222)" fill="#fff"/><path d="M1278.538,1082.768v100.3q0,5.656.78,7.217a4.444,4.444,0,0,0,2.34,1.559q5.656,2.147,23.207,2.145v2.114h-76.838v-2.114q8.385,0,14.529-.585a36.041,36.041,0,0,0,8.385-1.463,5.372,5.372,0,0,0,2.927-2.145q.681-1.269.681-6.729v-100.3q0-5.46-.778-6.825-.393-.78-2.537-1.561-5.657-2.145-23.208-2.145v-1.918h77.033v1.918q-8.386,0-14.529.585a36.694,36.694,0,0,0-8.679,1.56l-1.949.78Q1278.537,1076.333,1278.538,1082.768Z" transform="translate(-1000.322 -985.222)" fill="none" stroke="#fff" stroke-miterlimit="22.926" stroke-width="0.216"/><path d="M975.5,1381.142l-24.573,94.974h-6.468l-42.9-113.729q-2.924-8-5.949-9.458t-16.478-1.463v-1.918h66.664v1.918q-11.9,0-16.479,1.267t-4.584,4.974a12.273,12.273,0,0,0,1.171,4.681l30.292,81.745,17.747-67.867-4.094-13.879q-2.342-7.8-5.656-9.361c-2.212-1.04-7.9-1.56-17-1.56v-1.918h66.566v1.918q-11.9,0-16.48,1.267t-4.582,5.364a12.471,12.471,0,0,0,.781,4.291l25.157,81.94,21.615-60.684q3.315-9.555,3.314-15.6,0-16.576-23.4-16.576v-1.918h50.151v1.918q-13.847,0-20.477,14.236-.976,2.144-7.215,19.111l-31.983,91.3h-6.274Z" transform="translate(-836.982 -1078.442)" fill="#fff"/><path d="M975.5,1381.142l-24.573,94.974h-6.468l-42.9-113.729q-2.924-8-5.949-9.458t-16.478-1.463v-1.918h66.664v1.918q-11.9,0-16.479,1.267t-4.584,4.974a12.273,12.273,0,0,0,1.171,4.681l30.292,81.745,17.747-67.867-4.094-13.879q-2.342-7.8-5.656-9.361c-2.212-1.04-7.9-1.56-17-1.56v-1.918h66.566v1.918q-11.9,0-16.48,1.267t-4.582,5.364a12.471,12.471,0,0,0,.781,4.291l25.157,81.94,21.615-60.684q3.315-9.555,3.314-15.6,0-16.576-23.4-16.576v-1.918h50.151v1.918q-13.847,0-20.477,14.236-.976,2.144-7.215,19.111l-31.983,91.3h-6.274Z" transform="translate(-836.982 -1078.442)" fill="none" stroke="#fff" stroke-miterlimit="22.926" stroke-width="0.216"/><path d="M1077.622,1788.287q20.425,0,31.264-14.336,10.824-14.333,10.825-43.424h2.057v60.262H1011.15v-2.113a116.936,116.936,0,0,0,12.685-.586,27.246,27.246,0,0,0,7.187-1.463,4.8,4.8,0,0,0,2.538-2.145q.591-1.267.593-6.728V1677.84q0-5.654-.678-7.02-.336-.78-2.283-1.559a38.283,38.283,0,0,0-7.611-1.562,91.471,91.471,0,0,0-12.432-.78V1665h69.517v1.917a143.952,143.952,0,0,0-14.8.586,28.078,28.078,0,0,0-7.526,1.561q-2.2.974-2.536,1.754-.848,1.757-.846,7.02v99.72q0,5.655.676,7.217a3.912,3.912,0,0,0,2.03,1.559Q1063.415,1788.287,1077.622,1788.287Z" transform="translate(-898.789 -1199.289)" fill="#fff"/><path d="M1077.622,1788.287q20.425,0,31.264-14.336,10.824-14.333,10.825-43.424h2.057v60.262H1011.15v-2.113a116.936,116.936,0,0,0,12.685-.586,27.246,27.246,0,0,0,7.187-1.463,4.8,4.8,0,0,0,2.538-2.145q.591-1.267.593-6.728V1677.84q0-5.654-.678-7.02-.336-.78-2.283-1.559a38.283,38.283,0,0,0-7.611-1.562,91.471,91.471,0,0,0-12.432-.78V1665h69.517v1.917a143.952,143.952,0,0,0-14.8.586,28.078,28.078,0,0,0-7.526,1.561q-2.2.974-2.536,1.754-.848,1.757-.846,7.02v99.72q0,5.655.676,7.217a3.912,3.912,0,0,0,2.03,1.559Q1063.415,1788.287,1077.622,1788.287Z" transform="translate(-898.789 -1199.289)" fill="none" stroke="#fff" stroke-miterlimit="22.926" stroke-width="0.216"/><path d="M1300.2,1864.753v106.733q0,6.016.779,7.677a4.454,4.454,0,0,0,2.341,1.66q5.655,2.284,23.208,2.284v2.247h-76.838v-2.247q8.388,0,14.529-.624a34.092,34.092,0,0,0,8.386-1.556,5.417,5.417,0,0,0,2.925-2.283q.683-1.349.684-7.159V1864.753q0-5.811-.781-7.263-.388-.829-2.535-1.66-5.654-2.284-23.208-2.284v-2.041h77.033v2.041q-8.386,0-14.529.623a34.734,34.734,0,0,0-8.679,1.661l-1.951.829Q1300.2,1857.905,1300.2,1864.753Z" transform="translate(-1010.465 -1269.41)" fill="#fff"/><path d="M1300.2,1864.753v106.733q0,6.016.779,7.677a4.454,4.454,0,0,0,2.341,1.66q5.655,2.284,23.208,2.284v2.247h-76.838v-2.247q8.388,0,14.529-.624a34.092,34.092,0,0,0,8.386-1.556,5.417,5.417,0,0,0,2.925-2.283q.683-1.349.684-7.159V1864.753q0-5.811-.781-7.263-.388-.829-2.535-1.66-5.654-2.284-23.208-2.284v-2.041h77.033v2.041q-8.386,0-14.529.623a34.734,34.734,0,0,0-8.679,1.661l-1.951.829Q1300.2,1857.905,1300.2,1864.753Z" transform="translate(-1010.465 -1269.41)" fill="none" stroke="#fff" stroke-miterlimit="22.926" stroke-width="0.216"/><g transform="translate(240.819 120.719)"><circle cx="38.542" cy="38.542" r="38.542" transform="translate(8.92 72.303) rotate(-45)" fill="#fb5f03"/><path d="M1361.225,1242.422a38.542,38.542,0,0,1-46.548-61.443Z" transform="translate(-1274.589 -1139.348)" fill="#dc5303" fill-rule="evenodd"/><path d="M1358.7,1217.18c-2.107-.085-14.177,13.516-15.171,23.7-1.991,20.394,12.8,26.311,23.083,21.595C1378.317,1257.106,1379.328,1232.334,1358.7,1217.18Z" transform="translate(-1295.127 -1156.295)" fill="#feefd1" fill-rule="evenodd"/><path d="M1366.477,1259.628c-.962-.039-6.479,6.177-6.934,10.833-.909,9.322,5.853,12.026,10.551,9.871C1375.446,1277.876,1375.908,1266.554,1366.477,1259.628Z" transform="translate(-1302.672 -1176.168)" fill="#e1a200" fill-rule="evenodd"/><g transform="translate(0 116.922)"><path d="M1378.1,1345.008q.152,1.825.151,3.687c0,26.763-23.6,48.46-52.707,48.46s-52.707-21.7-52.707-48.46q0-1.861.151-3.687Z" transform="translate(-1262.12 -1333.061)" fill="#e53558" fill-rule="evenodd"/><path d="M1377.075,1351.963q.129,1.43.131,2.889c0,20.64-19.671,37.373-43.938,37.373s-43.935-16.733-43.935-37.373q0-1.459.128-2.889Z" transform="translate(-1269.841 -1336.318)" fill="#b71b3a" fill-rule="evenodd"/><path d="M1377.912,1381.658a47.191,47.191,0,0,1-7.585,13.168h-84.505a47.153,47.153,0,0,1-7.584-13.168Z" transform="translate(-1264.647 -1350.219)" fill="#feb100" fill-rule="evenodd"/><path d="M1378.246,1356.892a44.834,44.834,0,0,1-2.792,13.168h-99.676a44.879,44.879,0,0,1-2.79-13.168Z" transform="translate(-1262.189 -1338.625)" fill="#f60" fill-rule="evenodd"/><g transform="translate(49.336 14.793)"><rect width="14.091" height="30.017" fill="#08c8a9"/><rect width="14.092" height="30.017" transform="translate(14.091)" fill="#d70e4c"/></g><g transform="translate(49.336 14.793)"><rect width="14.091" height="16.455" fill="#ffe738"/><rect width="14.092" height="16.455" transform="translate(14.091)" fill="#a03ba0"/></g><g transform="translate(13.591 31.439)"><g transform="translate(4.312 8.63)"><path d="M1287.1,1397.884v1.154q-.388-.572-.758-1.154Z" transform="translate(-1286.345 -1397.884)" fill="red" fill-rule="evenodd"/><path d="M1287.771,1397.884v1.154q1.181,1.743,2.514,3.384h11.577v-4.538Z" transform="translate(-1287.013 -1397.884)" fill="red" fill-rule="evenodd"/></g><path d="M1283.308,1381.658v8.627h-.759a46.462,46.462,0,0,1-4.312-8.627Z" transform="translate(-1278.238 -1381.658)" fill="red" fill-rule="evenodd"/><rect width="14.091" height="8.627" transform="translate(5.07)" fill="red"/></g><rect width="126.855" height="18.266" fill="#08c8a9"/></g><path d="M1390.413,1123.315a10.307,10.307,0,1,0-10.306-10.307A10.327,10.327,0,0,0,1390.413,1123.315Z" transform="translate(-1312.338 -1102.701)" fill="#e42284" fill-rule="evenodd"/></g><path d="M1071.942,1609.6a8.21,8.21,0,1,0-8.209-8.209A8.226,8.226,0,0,0,1071.942,1609.6Z" transform="translate(-923.406 -1182.09)" fill="#c448c4" fill-rule="evenodd"/><path d="M1511.066,1225.971a5.47,5.47,0,1,0-5.469-5.47A5.481,5.481,0,0,0,1511.066,1225.971Z" transform="translate(-1130.268 -1031.777)" fill="#08c8a9" fill-rule="evenodd"/><path d="M1201.253,1266.552a5.579,5.579,0,1,0-5.581-5.579A5.589,5.589,0,0,0,1201.253,1266.552Z" transform="translate(-985.175 -1047.858)" fill="#c448c4" fill-rule="evenodd"/><path d="M1253.756,1519.4l-17.91-49.568-17.909,49.568Zm.976,2.307h-37.769l-6.046,17.163a33.739,33.739,0,0,0-2.34,11.148q0,7.215,5.46,10.336t15.407,3.12v2.113h-49.372v-2.113q13.454,0,20.865-10.14,4.1-5.657,10.532-23.4l32.957-91.692h4.064l41.96,114.314q2.927,7.994,5.852,9.459t17.55,1.461v2.113h-71.8v-2.113q14.627,0,20.087-1.071t5.46-4.389l-.389-1.952Z" transform="translate(-977.872 -1112.323)" fill="#fff"/><path d="M1253.756,1519.4l-17.91-49.568-17.909,49.568Zm.976,2.307h-37.769l-6.046,17.163a33.739,33.739,0,0,0-2.34,11.148q0,7.215,5.46,10.336t15.407,3.12v2.113h-49.372v-2.113q13.454,0,20.865-10.14,4.1-5.657,10.532-23.4l32.957-91.692h4.064l41.96,114.314q2.927,7.994,5.852,9.459t17.55,1.461v2.113h-71.8v-2.113q14.627,0,20.087-1.071t5.46-4.389l-.389-1.952Z" transform="translate(-977.872 -1112.323)" fill="none" stroke="#fff" stroke-miterlimit="22.926" stroke-width="0.216"/><g transform="translate(11.52 328.542)"><g transform="translate(33.343)"><path d="M910.883,1445.968c-3.656-.127-24.606,20.025-26.331,35.117-3.454,30.217,22.219,38.986,40.066,31.994C944.938,1505.122,946.694,1468.421,910.883,1445.968Z" transform="translate(-884.237 -1445.967)" fill="#e62485" fill-rule="evenodd"/><path d="M913.731,1446.132c-3.71,1.109-16.046,12.729-22.261,24.625l22.261,25.2Z" transform="translate(-887.623 -1446.044)" fill="#f0800c" fill-rule="evenodd"/><path d="M921.952,1446.132c-2.241.671-7.635,5.18-12.922,11.268l12.922,27.762Z" transform="translate(-895.844 -1446.044)" fill="#03c3ab" fill-rule="evenodd"/><path d="M960.038,1500.609c.313-10.073-3.8-21.837-13.636-32.395l-17.274,35.929Z" transform="translate(-905.253 -1456.382)" fill="#feba00" fill-rule="evenodd"/><path d="M924.391,1499.813c-1.671-.058-11.246,9.153-12.035,16.05-1.578,13.812,10.156,17.819,18.312,14.624C939.956,1526.849,940.758,1510.074,924.391,1499.813Z" transform="translate(-897.334 -1471.175)" fill="#feefd1" fill-rule="evenodd"/><path d="M929.946,1520.867c-.856-.034-5.753,5.485-6.157,9.618-.806,8.277,5.195,10.677,9.368,8.763C937.907,1537.068,938.317,1527.018,929.946,1520.867Z" transform="translate(-902.719 -1481.032)" fill="#dce000" fill-rule="evenodd"/></g><g transform="translate(0 64.388)"><path d="M941.882,1567.53c.026.21.048-.062.067-.5h.1l0,3.4c0,11.036-28.273,34.62-61.552,34.62s-58.96-23.584-58.96-34.62l0-3.4h.1c.019.435.041.707.066.5Z" transform="translate(-821.543 -1567.033)" fill="#e22148" fill-rule="evenodd"/><g transform="translate(1.607 8.961)"><path d="M836.771,1597.442l3.056-4.505,6.134-9.054h-21.4C826.716,1588.076,830.946,1592.923,836.771,1597.442Z" transform="translate(-824.565 -1583.882)" fill="#ed758d" fill-rule="evenodd"/><path d="M877.067,1601.99l-6.135-9.053-6.136-9.054h24.546l-6.138,9.054Z" transform="translate(-843.399 -1583.882)" fill="#ed758d" fill-rule="evenodd"/><path d="M923.219,1601.99l6.135-9.053,6.138-9.054H910.948l6.135,9.054Z" transform="translate(-865.006 -1583.882)" fill="#ed758d" fill-rule="evenodd"/><path d="M969.368,1601.99l-6.135-9.053-6.136-9.054h24.542l-6.135,9.054Z" transform="translate(-886.611 -1583.882)" fill="#ed758d" fill-rule="evenodd"/><path d="M1025.361,1583.882h-22.118l6.136,9.054,2.982,4.4C1018.494,1592.844,1023.034,1588.041,1025.361,1583.882Z" transform="translate(-908.214 -1583.882)" fill="#ed758d" fill-rule="evenodd"/></g><g transform="translate(59.992)"><path d="M994.69,1567.53c.026.21.048-.062.067-.5h.1l0,3.4c0,10.922-27.691,34.129-60.52,34.61V1567.53Z" transform="translate(-934.343 -1567.033)" fill="#ba1b3b" fill-rule="evenodd"/><g transform="translate(0 8.961)"><path d="M934.343,1601.737l5.963-8.8,6.138-9.054h-12.1Z" transform="translate(-934.343 -1583.882)" fill="#e53458" fill-rule="evenodd"/><path d="M969.368,1601.99l-6.135-9.053-6.136-9.054h24.542l-6.135,9.054Z" transform="translate(-944.995 -1583.882)" fill="#e53458" fill-rule="evenodd"/><path d="M1025.361,1583.882h-22.118l6.136,9.054,2.982,4.4C1018.494,1592.844,1023.034,1588.041,1025.361,1583.882Z" transform="translate(-966.599 -1583.882)" fill="#e53458" fill-rule="evenodd"/></g></g></g></g><path d="M1237.673,965.494h-1.332v7.684h-8.528v-7.684h-1.332v17.62h1.332v-8.706h8.528v8.706h1.332Z" transform="translate(-999.599 -936.147)" fill="#fff"/><path d="M1276.915,979.41a9.277,9.277,0,0,0-.1-1.427,5.523,5.523,0,0,0-.366-1.343,3.651,3.651,0,0,0-.712-1.13,3.206,3.206,0,0,0-1.156-.777,4.511,4.511,0,0,0-1.681-.29,6.08,6.08,0,0,0-2.334.471,5.552,5.552,0,0,0-1.081.6l.386,1.022a4.138,4.138,0,0,1,.885-.519,4.807,4.807,0,0,1,.974-.309,5.131,5.131,0,0,1,1-.1,3.12,3.12,0,0,1,1.4.286,2.208,2.208,0,0,1,.843.732,3.076,3.076,0,0,1,.436.979,5.725,5.725,0,0,1,.161,1.025c.017.333.024.626.02.878a11.564,11.564,0,0,0-3.824.515,4.779,4.779,0,0,0-2.326,1.571,4.027,4.027,0,0,0-.789,2.511,3.955,3.955,0,0,0,.212,1.269,3.39,3.39,0,0,0,.633,1.114,3.038,3.038,0,0,0,1.062.8,3.551,3.551,0,0,0,1.489.3,4.325,4.325,0,0,0,1.589-.3,4.154,4.154,0,0,0,1.21-.751,3.709,3.709,0,0,0,.787-.967h.065l.151,1.74h1.224c-.06-.468-.1-.959-.121-1.469s-.029-1.022-.029-1.525v-4.9Zm-1.309,3.831a2.739,2.739,0,0,1-.108.689,3.846,3.846,0,0,1-.354.832,3.559,3.559,0,0,1-.633.809,3.114,3.114,0,0,1-.949.612,3.488,3.488,0,0,1-1.306.239,2.24,2.24,0,0,1-1.089-.271,2.012,2.012,0,0,1-.808-.828,3.061,3.061,0,0,1-.317-1.432,3,3,0,0,1,.344-1.463,2.649,2.649,0,0,1,.917-.943,4.453,4.453,0,0,1,1.3-.542,8.508,8.508,0,0,1,1.5-.244c.515-.043,1.02-.062,1.511-.058Z" transform="translate(-1019.337 -940.337)" fill="#fff"/><path d="M1307.94,977.019l-.108-2.275h-1.224q.034.86.062,1.831c.014.645.024,1.369.024,2.163v13.743h1.332v-7.1h.043a4.246,4.246,0,0,0,.956,1.191,4.113,4.113,0,0,0,1.3.75,4.416,4.416,0,0,0,1.528.264,4.674,4.674,0,0,0,2.956-1.053,5.235,5.235,0,0,0,1.147-1.339,6.972,6.972,0,0,0,.77-1.9,10.186,10.186,0,0,0,.283-2.469,8.989,8.989,0,0,0-.358-2.585,6.312,6.312,0,0,0-1-2.019,4.624,4.624,0,0,0-1.542-1.312,4.264,4.264,0,0,0-1.977-.468,4.547,4.547,0,0,0-2.491.677,4.671,4.671,0,0,0-1.654,1.9Zm.086,2.879a4.441,4.441,0,0,1,.158-1.122,5.039,5.039,0,0,1,.469-1.145,4.37,4.37,0,0,1,.767-1.009,3.506,3.506,0,0,1,1.056-.72,3.381,3.381,0,0,1,2.985.155,3.687,3.687,0,0,1,1.213,1.16,5.559,5.559,0,0,1,.744,1.68,7.658,7.658,0,0,1,.255,2,8.822,8.822,0,0,1-.265,2.221,5.494,5.494,0,0,1-.77,1.74,3.584,3.584,0,0,1-1.25,1.134,3.53,3.53,0,0,1-1.689.406,3.432,3.432,0,0,1-1.489-.329,3.534,3.534,0,0,1-1.161-.882,4.091,4.091,0,0,1-.755-1.284,4.624,4.624,0,0,1-.268-1.544Z" transform="translate(-1037.11 -940.337)" fill="#fff"/><path d="M1348.447,977.019l-.107-2.275h-1.224q.033.86.061,1.831c.014.645.024,1.369.024,2.163v13.743h1.332v-7.1h.043a4.244,4.244,0,0,0,.957,1.191,4.1,4.1,0,0,0,1.3.75,4.416,4.416,0,0,0,1.529.264,4.685,4.685,0,0,0,2.958-1.053,5.273,5.273,0,0,0,1.145-1.339,6.949,6.949,0,0,0,.77-1.9,10.18,10.18,0,0,0,.282-2.469,8.994,8.994,0,0,0-.358-2.585,6.322,6.322,0,0,0-1-2.019,4.626,4.626,0,0,0-1.542-1.312,4.264,4.264,0,0,0-1.977-.468,4.545,4.545,0,0,0-2.491.677,4.682,4.682,0,0,0-1.655,1.9Zm.086,2.879a4.415,4.415,0,0,1,.158-1.122,4.972,4.972,0,0,1,.469-1.145,4.439,4.439,0,0,1,.766-1.009,3.527,3.527,0,0,1,1.057-.72,3.381,3.381,0,0,1,2.985.155,3.7,3.7,0,0,1,1.214,1.16,5.6,5.6,0,0,1,.745,1.68,7.684,7.684,0,0,1,.255,2,8.846,8.846,0,0,1-.265,2.221,5.51,5.51,0,0,1-.771,1.74,3.587,3.587,0,0,1-1.25,1.134,3.532,3.532,0,0,1-1.689.406,3.432,3.432,0,0,1-1.49-.329,3.522,3.522,0,0,1-1.16-.882,4.092,4.092,0,0,1-.755-1.284,4.633,4.633,0,0,1-.269-1.544Z" transform="translate(-1056.074 -940.337)" fill="#fff"/><path d="M1393.452,975.009,1390.788,983c-.162.5-.315.986-.459,1.454s-.272.9-.38,1.285h-.043c-.072-.267-.151-.55-.239-.851s-.184-.615-.28-.929-.2-.615-.3-.913l-2.878-8.033h-1.419L1389,986.64c.043.129.076.233.1.318a.914.914,0,0,1,.033.217,1.843,1.843,0,0,1-.1.418,7.989,7.989,0,0,1-.314.782,9.794,9.794,0,0,1-.534.994,8.218,8.218,0,0,1-.762,1.056,6.775,6.775,0,0,1-1.006.968,5.3,5.3,0,0,1-1.257.728l.407,1.207a5.537,5.537,0,0,0,2-1.258,9.213,9.213,0,0,0,1.54-2.039,22.221,22.221,0,0,0,1.267-2.686q.59-1.486,1.189-3.188l3.307-9.148Z" transform="translate(-1073.713 -940.602)" fill="#fff"/><g transform="translate(272.221 305.749)"><g transform="translate(107.347)"><path d="M1527.552,1403.341a13.983,13.983,0,1,0-13.983-13.983A14.01,14.01,0,0,0,1527.552,1403.341Z" transform="translate(-1513.569 -1375.375)" fill="#fb5f03" fill-rule="evenodd"/><path d="M1535.972,1403.034a13.983,13.983,0,0,1-16.888-22.29Z" transform="translate(-1513.569 -1377.889)" fill="#c64b02" fill-rule="evenodd"/><path d="M1535.055,1393.878c-.764-.032-5.144,4.9-5.5,8.6-.722,7.4,4.644,9.546,8.373,7.835C1542.174,1408.362,1542.54,1399.375,1535.055,1393.878Z" transform="translate(-1521.021 -1384.037)" fill="#feefd1" fill-rule="evenodd"/><path d="M1537.878,1409.276c-.35-.014-2.35,2.241-2.515,3.93-.33,3.381,2.123,4.363,3.827,3.58C1541.132,1415.9,1541.3,1411.789,1537.878,1409.276Z" transform="translate(-1523.758 -1391.246)" fill="#e1a200" fill-rule="evenodd"/></g><g transform="translate(0 21.517)"><path d="M1449.153,1892.656l-4.166,2.116c-1.658,5.232-2.819,9.2-1.958,11.118.575.949,1.715.821,5.537.818,2.9,0,1.606-6.747,1.293-9.856C1449.786,1896.137,1449.214,1893.408,1449.153,1892.656Z" transform="translate(-1373.061 -1639.061)" fill="#bc5231" fill-rule="evenodd"/><path d="M1399.664,1609l-36.726-11.757c6.226,6.225,13.769,15.166,16.638,23.231.25.7,1.2,1.41-.133,3.314-11.74,2.865-28.1,11.227-40.413,12.742-7.493.921-17.931,3.479-23.333,8.2-8.314,7.265-1.926,26.54,4.253,34.75,5.945,7.9,3.971,8.013,11.991,17.292,5.358,6.2,13.485,15.591,19.98,19.787,3.4,2.2,12.854-2.036,21.3,2.369,7.971,4.156-2.793,4.821,8.723,15.181,1.058.952,1.756.647,2.037,2,1.616.559,5.785.092,7.413-.327,7.218-1.856-1.811-3.761,9.844-2.328a38.911,38.911,0,0,0,5.561-.231c2.453-6.735,11.386-39.978,12.122-46.3,1.543-13.254,4.758-10.629,4.758-29.889,0-10.865-4.074-13.306-3.543-26.775.21-5.327-8.725-20.136-13.028-21.031C1406.451,1608.849,1400.8,1609,1399.664,1609Z" transform="translate(-1311.729 -1500.761)" fill="#08c8a9" fill-rule="evenodd"/><g transform="translate(0.001 105.536)"><path d="M1347.813,1671v4.8h-18.225a62.637,62.637,0,0,1,17.8-4.739Z" transform="translate(-1320.09 -1640.829)" fill="#38b4af" fill-rule="evenodd"/><path d="M1347.813,1671v4.8h-18.225a62.637,62.637,0,0,1,17.8-4.739Z" transform="translate(-1320.09 -1640.829)" fill="#378986" fill-rule="evenodd"/><path d="M1395.254,1614.267h3.113v4.172c-.981-1.415-2.028-2.812-3.113-4.172Zm3.113,19.008v15.963H1363.4v-4.764C1373.93,1643.126,1387.382,1636.841,1398.368,1633.275Z" transform="translate(-1335.917 -1614.267)" fill="#38b4af" fill-rule="evenodd"/><path d="M1398.368,1614.92v3.825q-.783-1.127-1.614-2.236l1.614-1.589Zm0,18.661v15.963H1363.4v-.151l5.831-5.748C1378.61,1641.3,1389.325,1636.517,1398.368,1633.581Z" transform="translate(-1335.917 -1614.573)" fill="#378986" fill-rule="evenodd"/><g transform="translate(0 34.389)"><path d="M1322.537,1678.928h16.915V1713.9H1317.5c-5.174-9.319-9.012-24.635-1.807-30.931A25.557,25.557,0,0,1,1322.537,1678.928Z" transform="translate(-1311.73 -1678.928)" fill="#38b4af" fill-rule="evenodd"/><path d="M1341.106,1679.581v34.626h-21.948a49.862,49.862,0,0,1-3.9-9.151Z" transform="translate(-1313.384 -1679.234)" fill="#378986" fill-rule="evenodd"/><rect width="34.973" height="34.973" transform="translate(27.477)" fill="#38b4af"/><path d="M1398.368,1679.581v34.626h-34.973v-.15Z" transform="translate(-1335.917 -1679.234)" fill="#378986" fill-rule="evenodd"/></g><g transform="translate(0 30.768)"><path d="M1347.813,1676.115v.207h-18.225a58.49,58.49,0,0,1,14.2-4.2Z" transform="translate(-1320.09 -1672.118)" fill="#28f0f0" fill-rule="evenodd"/><path d="M1347.813,1676.115v.207h-18.225a58.5,58.5,0,0,1,14.2-4.2Z" transform="translate(-1320.09 -1672.118)" fill="#31c8c2" fill-rule="evenodd"/><path d="M1363.846,1679.627h-.452v-.448Z" transform="translate(-1335.917 -1675.424)" fill="#28f0f0" fill-rule="evenodd"/><path d="M1363.846,1679.758h-.452v-.151l.152-.148Z" transform="translate(-1335.917 -1675.555)" fill="#31c8c2" fill-rule="evenodd"/><g transform="translate(0 3.622)"><path d="M1322.537,1678.928h16.538l.377.375v34.6H1317.5c-5.174-9.319-9.012-24.635-1.807-30.931A25.557,25.557,0,0,1,1322.537,1678.928Z" transform="translate(-1311.73 -1678.928)" fill="#28f0f0" fill-rule="evenodd"/><path d="M1341.106,1679.621v34.6h-21.948a49.867,49.867,0,0,1-3.9-9.151l25.829-25.462Z" transform="translate(-1313.384 -1679.245)" fill="#31c8c2" fill-rule="evenodd"/><path d="M1398.368,1713.938v.08h-34.973v-34.84Z" transform="translate(-1335.917 -1679.046)" fill="#28f0f0" fill-rule="evenodd"/><path d="M1398.368,1729.268v.08h-34.973v-.15l17.522-17.275Z" transform="translate(-1335.917 -1694.375)" fill="#31c8c2" fill-rule="evenodd"/></g></g><g transform="translate(62.502)"><path d="M1429.25,1614.267h16.987l8.445,2.7c1.139,0,6.787-.149,7.448.231a5.267,5.267,0,0,1,2.092,1.171v30.867H1429.25V1633.26c1.813-.589,3.556-1.1,5.209-1.5,1.331-1.9.386-2.609.134-3.312a43.919,43.919,0,0,0-5.343-9.926Z" transform="translate(-1429.25 -1614.267)" fill="#38b4af" fill-rule="evenodd"/><path d="M1464.221,1620.856v30.867H1429.25v-.151l32.462-32a1.341,1.341,0,0,1,.418.112A5.265,5.265,0,0,1,1464.221,1620.856Z" transform="translate(-1429.25 -1616.751)" fill="#378986" fill-rule="evenodd"/><path d="M1506.508,1652.679h-11.96v-31.062c4.589,3.55,11.363,15.411,11.18,20.056A44.491,44.491,0,0,0,1506.508,1652.679Z" transform="translate(-1459.82 -1617.708)" fill="#38b4af" fill-rule="evenodd"/><path d="M1506.508,1670.186h-11.96v-.151l11.181-11.023v.167A44.491,44.491,0,0,0,1506.508,1670.186Z" transform="translate(-1459.82 -1635.215)" fill="#378986" fill-rule="evenodd"/><g transform="translate(0 34.389)"><rect width="34.971" height="34.973" fill="#38b4af"/><path d="M1464.221,1679.581v34.626H1429.25v-.15Z" transform="translate(-1429.25 -1679.234)" fill="#378986" fill-rule="evenodd"/><path d="M1494.548,1678.928h11.845c1.048,5.571,2.877,9.068,2.877,16.35,0,11-1.049,14.865-2.237,18.623h-12.485Z" transform="translate(-1459.82 -1678.928)" fill="#38b4af" fill-rule="evenodd"/><path d="M1507.033,1731.823h-12.485v-.151l14.67-14.462C1508.99,1725.221,1508.064,1728.561,1507.033,1731.823Z" transform="translate(-1459.82 -1696.85)" fill="#378986" fill-rule="evenodd"/></g><g transform="translate(0 0.004)"><path d="M1464.221,1649.035v.207H1429.25v-15.979c1.813-.589,3.556-1.1,5.209-1.5,1.331-1.9.386-2.608.134-3.312a43.9,43.9,0,0,0-5.343-9.926v-4.246Z" transform="translate(-1429.25 -1614.275)" fill="#28f0f0" fill-rule="evenodd"/><path d="M1464.221,1664.422v.207H1429.25v-.151l17.586-17.336Z" transform="translate(-1429.25 -1629.662)" fill="#31c8c2" fill-rule="evenodd"/><path d="M1495,1679.627h-.452v-.448Z" transform="translate(-1459.82 -1644.66)" fill="#28f0f0" fill-rule="evenodd"/><path d="M1495,1679.758h-.452v-.151l.151-.148Z" transform="translate(-1459.82 -1644.792)" fill="#31c8c2" fill-rule="evenodd"/><g transform="translate(0 34.385)"><path d="M1429.25,1678.928h34.595l.376.375v34.6H1429.25Z" transform="translate(-1429.25 -1678.928)" fill="#28f0f0" fill-rule="evenodd"/><path d="M1464.221,1679.621v34.6H1429.25v-.15l34.958-34.462Z" transform="translate(-1429.25 -1679.245)" fill="#31c8c2" fill-rule="evenodd"/><path d="M1507.033,1714.019h-12.485v-34.84l14.692,14.6c.019.516.031,1.052.031,1.614C1509.271,1706.4,1508.221,1710.26,1507.033,1714.019Z" transform="translate(-1459.82 -1679.045)" fill="#28f0f0" fill-rule="evenodd"/><path d="M1507.033,1731.823h-12.485v-.151l14.67-14.462C1508.99,1725.221,1508.064,1728.561,1507.033,1731.823Z" transform="translate(-1459.82 -1696.85)" fill="#31c8c2" fill-rule="evenodd"/></g></g></g><g transform="translate(5.742 69.307)"><path d="M1322.526,1744.581h21.98v29.636c-2.759-2.977-5.358-5.98-7.511-8.469-8.02-9.279-6.046-9.392-11.991-17.292A33.548,33.548,0,0,1,1322.526,1744.581Z" transform="translate(-1322.526 -1744.581)" fill="#38b4af" fill-rule="evenodd"/><path d="M1352.085,1745.234v29.289c-2.759-2.977-5.358-5.98-7.511-8.469a62.184,62.184,0,0,1-5.859-7.639Z" transform="translate(-1330.105 -1744.887)" fill="#378986" fill-rule="evenodd"/><path d="M1363.4,1744.581h34.973v34.971h-29.518c-1.839-1.764-3.681-3.678-5.454-5.6Z" transform="translate(-1341.659 -1744.581)" fill="#38b4af" fill-rule="evenodd"/><path d="M1400.715,1745.234v34.624H1371.2c-.931-.9-1.864-1.827-2.788-2.78Z" transform="translate(-1344.006 -1744.887)" fill="#378986" fill-rule="evenodd"/><g transform="translate(26.592 34.389)"><path d="M1372.525,1809.242h30.117v9.469c-.286-.173-.6-.351-.957-.536-8.449-4.406-17.9-.169-21.3-2.369A53.659,53.659,0,0,1,1372.525,1809.242Z" transform="translate(-1372.525 -1809.242)" fill="#38b4af" fill-rule="evenodd"/><path d="M1423.135,1809.9v9.121c-.286-.173-.6-.35-.957-.536a18.259,18.259,0,0,0-5.88-1.849Z" transform="translate(-1393.018 -1809.548)" fill="#378986" fill-rule="evenodd"/></g></g><g transform="translate(62.502 69.307)"><rect width="34.971" height="34.971" fill="#38b4af"/><path d="M1464.221,1745.235v34.624H1429.25v-.15Z" transform="translate(-1429.25 -1744.887)" fill="#378986" fill-rule="evenodd"/><path d="M1494.548,1744.581h12.5a50.885,50.885,0,0,0-2.54,11.323c-.377,3.228-2.893,13.488-5.591,23.649h-4.373Z" transform="translate(-1459.82 -1744.581)" fill="#38b4af" fill-rule="evenodd"/><path d="M1498.921,1805.046h-4.373v-.15l5.943-5.86C1499.984,1801.006,1499.458,1803.028,1498.921,1805.046Z" transform="translate(-1459.82 -1770.075)" fill="#378986" fill-rule="evenodd"/><g transform="translate(0 34.389)"><path d="M1429.25,1809.242h34.971v15.513c-1.008,3.474-1.862,6.237-2.4,7.718a38.848,38.848,0,0,1-5.561.229c-11.655-1.431-2.626.474-9.844,2.33-1.628.419-5.8.887-7.413.327-.281-1.356-.979-1.051-2.037-2-10.972-9.87-1.72-10.938-7.714-14.614Z" transform="translate(-1429.25 -1809.242)" fill="#38b4af" fill-rule="evenodd"/><path d="M1472.6,1809.9v15.165c-1.008,3.474-1.862,6.237-2.4,7.717a38.85,38.85,0,0,1-5.561.229c-11.655-1.431-2.626.474-9.845,2.33-1.628.419-5.8.887-7.413.327a2.2,2.2,0,0,0-.238-.673Z" transform="translate(-1437.625 -1809.548)" fill="#378986" fill-rule="evenodd"/><path d="M1494.548,1809.242h4.527c-1.562,5.9-3.2,11.82-4.527,16.348Z" transform="translate(-1459.82 -1809.242)" fill="#38b4af" fill-rule="evenodd"/></g><g transform="translate(0 0.005)"><path d="M1464.221,1779.35v.207H1429.25V1744.59Z" transform="translate(-1429.25 -1744.59)" fill="#28f0f0" fill-rule="evenodd"/><path d="M1464.221,1794.736v.207H1429.25v-.15l17.586-17.337Z" transform="translate(-1429.25 -1759.977)" fill="#31c8c2" fill-rule="evenodd"/><path d="M1495,1809.941h-.452v-.449Z" transform="translate(-1459.82 -1774.975)" fill="#28f0f0" fill-rule="evenodd"/><path d="M1495,1810.073h-.452v-.15l.151-.149Z" transform="translate(-1459.82 -1775.106)" fill="#31c8c2" fill-rule="evenodd"/><g transform="translate(0 34.385)"><path d="M1429.25,1809.242h34.595l.376.375v15.138c-1.008,3.474-1.862,6.237-2.4,7.718a38.848,38.848,0,0,1-5.561.229c-11.655-1.431-2.626.474-9.844,2.33-1.628.419-5.8.887-7.413.327-.281-1.356-.979-1.051-2.037-2-10.972-9.87-1.72-10.938-7.714-14.614Z" transform="translate(-1429.25 -1809.242)" fill="#28f0f0" fill-rule="evenodd"/><path d="M1472.6,1809.935v15.138c-1.008,3.474-1.862,6.237-2.4,7.718a38.829,38.829,0,0,1-5.561.229c-11.655-1.431-2.626.474-9.845,2.33-1.628.419-5.8.887-7.413.327a2.2,2.2,0,0,0-.238-.673l25.444-25.083Z" transform="translate(-1437.625 -1809.56)" fill="#31c8c2" fill-rule="evenodd"/><path d="M1494.548,1825.707v-16.215l3.548,3.528C1496.847,1817.656,1495.6,1822.116,1494.548,1825.707Z" transform="translate(-1459.82 -1809.359)" fill="#28f0f0" fill-rule="evenodd"/></g></g></g></g><path d="M1318.732,1736.818a39.947,39.947,0,0,0,4.5,8c2.837,3.771,3.756,6.225,5.081,8.177,1.452,2.138,3.316,3.809,6.91,9.115,10.74,15.848,20.277,23.866,34.648,29.247,5.118,1.918,9.37,8.413,14.565,12.39,1.356.112,2.794.23,4.332.363,3.077.267,6.145-4.1,8.464-3.988,2.054-1.439-2.235-2.5,7.29-1.327.289.035,1.141.035,2.11.007a13.252,13.252,0,0,0,4.832-4.51c.52-1.717,1.116-3.76,1.756-6-3.141-7.25-21.642-23.431-23.232-24.436-13.4-8.484-14.138-12.122-32.928-12.879-16.379-.659-13-2.194-26.454-7.6A56.146,56.146,0,0,1,1318.732,1736.818Z" transform="translate(-1315.008 -1566.104)" fill="#058671" fill-rule="evenodd"/><path d="M1439.309,1780.775l-3.442,5.162c.816.329,1.335.269,1.335,1.156,7.168,4.857-.378,11.679,5.294,10.792.369-.824.832-7.966,2.34-13.276-.1-.077.046-.139-.012-.175C1442.712,1783.1,1440.913,1781.879,1439.309,1780.775Z" transform="translate(-1369.845 -1586.683)" fill="#a94b2f" fill-rule="evenodd"/><path d="M1417.228,1773.23c-9.326-6.359-11.97-9.216-28.374-9.877-.78-.031-1.513-.065-2.206-.1,6.186,4.949,16.731,13.408,18.912,15.047,1.648,1.239,8.132,2.559,10.212,2.381C1415.772,1777.911,1416.695,1776.386,1417.228,1773.23Z" transform="translate(-1346.803 -1578.481)" fill="#633563" fill-rule="evenodd"/><path d="M1464.346,1805.172l-8.424-8.658-11.787-10.43c0,17-8.336,24.591-7.2,33.456,1.246,9.714,2.79,8.307,2.79,21.708,0,4.209.713,3.468,1.721,5.9,6.375,3.668,11.232.514,14.522-4.2,3.515-5.038,7.436-13.98,9.4-19.788,2.525-5.631,1.293-9.037.916-15.3C1466.3,1807.663,1464.391,1805.279,1464.346,1805.172Z" transform="translate(-1370.295 -1589.169)" fill="#873187" fill-rule="evenodd"/><path d="M1381.7,1491.605l-4.349,4.465c-1.471-4.67-2,11.554,7.37,17.062,1.948,1.148,4.691-2.189,6.8-2.189,1.33,1.89,8.765,11.108,8.409,19.822,1.454,0,11.972-.322,12.1-.281,1.526,4.41,9.628,9.435,14.574,8.045.948-5.531,8.716-3.156,2.335-13.87-5.211-8.749-1.656-1.233-10.774-7.369-12.087-8.134-10.931-22.411-21.634-25.405C1390.885,1490.306,1387.441,1488.315,1381.7,1491.605Z" transform="translate(-1342.063 -1450.474)" fill="#bc5231" fill-rule="evenodd"/><path d="M1392.406,1571.709l-2.783-23.989c-5.57,1.51-20.9,19.729-29.261,22.667-2.941,1.035-22.062,10.611-13.656,17.76,5.545,4.716,17.864-4.148,24.522-5.723,5.522-1.306,16.345-5.6,20.674-9.843C1392.519,1572.208,1392.447,1572.213,1392.406,1571.709Z" transform="translate(-1327.111 -1477.577)" fill="#bc5231" fill-rule="evenodd"/><path d="M1455.525,1491.628l-7.089-7.09c3.712-2.673,18.977-11.807,23.026-13.071,2.2-.687,4.224-.787,7.721-3.81,5.46-4.723,8.7-6.46,10.246-14.349,2.063-10.535,1-26.032,3.539-31.742.373-1.827,5.555-3.82,7.847-3.82.074,1.907-2.882,1.08-2.979,3.364,2.026,0,7.773-4.017,8.307-5.276-.029,4.122-3.155,9.092-6.96,12.078-3.511,2.756-3.341,2.529-2.9,7.475,1.019,11.541,2.5,25.861-1.594,33.488-4.959,9.237-25.545,25.217-37.78,22.724C1456.9,1491.6,1455.653,1491.628,1455.525,1491.628Z" transform="translate(-1375.729 -1415.833)" fill="#bc5231" fill-rule="evenodd"/><path d="M1413.04,1528.154l2.539-1.792a123.7,123.7,0,0,1,21.019-11.119c3.5-1.466,10.311,10.142,12.043,13.093-2.79,3.274-14.842,13.91-16.455,14.428-1.711,9.861,9.031,27.387,10.091,36.2-18.561,0-33.583,6.128-38.169,6.695-2.248-4.245-13.328-15.829-16.349-17.919-2.39-1.651-10.2,1.136-12.247,2.032-1.771-4.909-5.624-10.218-7.307-14.45,5.166-3.836,22.891-19.718,29.1-21.355l2.339-.617C1403.987,1532.209,1408.369,1531.451,1413.04,1528.154Z" transform="translate(-1338.169 -1462.313)" fill="#feefd1" fill-rule="evenodd"/><path d="M1402.458,1555.376l-9.216,7.413c7.684,1.995,21.332,14.785,27.948,20.444.231.2,6.712,9.074,8.172,10.852l.464.565c3.47,4.229,15.986,20.1,18,22.149,4.763,4.846,10.025,24.554,16.194,22.435,4.126-1.416,7.513-13.9,9.77-18.452,7.133-14.394-6.153-18.216-16.109-31.074-9.744-12.588-10.838-15.414-23.232-22.274C1432.089,1566.131,1403.166,1555.55,1402.458,1555.376Z" transform="translate(-1349.89 -1481.161)" fill="#e84969" fill-rule="evenodd"/><g transform="translate(50.287 75.873)"><path d="M1410.55,1558.55c-.742-.551-.765,3.1-.814,3.9-.368.333-.9-2.155-1.367-2.927l-.777.716.007.011c.385.687,1.69,1.753,1.633,2.53-.166.219-1.5-.893-2.3-1.169-.507-.176-.946.123-.393.663.985.961,3.168,1.207,4.467,1.164a9.984,9.984,0,0,0,2.316-.541c1.176-.466.033-.915-.577-.721-.875.279-2.612,1.135-2.021.423s2.155-1.354,2.579-2.243c.12-.248.166-.442.065-.583l-.424-.192c-.764.029-1.713,1.7-2.145,2.32-.041.058-.469.888-.623.548a2.938,2.938,0,0,1,.219-.985C1410.622,1560.757,1411.355,1558.946,1410.55,1558.55Z" transform="translate(-1406.281 -1558.494)" fill="#ac1936" fill-rule="evenodd"/><path d="M1420.2,1573.833c-.744-.551-.764,3.1-.813,3.9-.41.372-1.022-2.73-1.516-3.114-.728-.564-1.173-.071-.622.912.385.688,1.69,1.755,1.633,2.533-.166.218-1.5-.895-2.3-1.17-.509-.175-.947.123-.394.662.985.963,3.17,1.207,4.467,1.166a9.916,9.916,0,0,0,2.316-.542c1.176-.466.032-.914-.577-.721-.876.28-2.612,1.137-2.021.423s2.155-1.355,2.579-2.242c.169-.355.193-.593-.149-.737-.791-.334-1.883,1.606-2.355,2.281-.041.059-.469.889-.623.548a2.909,2.909,0,0,1,.219-.984C1420.275,1576.04,1421.007,1574.228,1420.2,1573.833Z" transform="translate(-1410.799 -1565.649)" fill="#ac1936" fill-rule="evenodd"/><path d="M1434.953,1568.173a.749.749,0,0,1,.007.171c-.167.219-1.495-.9-2.3-1.171-.507-.176-.947.124-.392.664.985.961,3.169,1.206,4.466,1.166h.02Z" transform="translate(-1418.326 -1562.534)" fill="#ac1936" fill-rule="evenodd"/><path d="M1434.767,1589.036c-.741-.551-.767,3.1-.815,3.9-.407.371-1.02-2.729-1.515-3.114-.727-.564-1.171-.07-.62.915.383.685,1.688,1.752,1.632,2.531-.166.216-1.5-.894-2.3-1.172l-.078-.022c.676.565,1.34,1.129,1.991,1.683a10.363,10.363,0,0,0,2.16.17,9.946,9.946,0,0,0,2.316-.544c1.176-.466.033-.915-.576-.719-.875.279-2.613,1.135-2.022.421s2.157-1.352,2.581-2.24c.168-.354.194-.595-.15-.739-.791-.335-1.883,1.607-2.356,2.281-.041.058-.469.888-.623.55a2.988,2.988,0,0,1,.219-.984C1434.84,1591.244,1435.571,1589.433,1434.767,1589.036Z" transform="translate(-1417.887 -1572.766)" fill="#ac1936" fill-rule="evenodd"/><path d="M1459.994,1591.9c-.743-.551-.767,3.1-.816,3.9-.407.37-1.02-2.73-1.514-3.113-.728-.567-1.173-.072-.622.914.386.686,1.688,1.752,1.632,2.529-.166.22-1.5-.893-2.3-1.169-.508-.174-.948.124-.394.663.984.962,3.169,1.207,4.468,1.166a9.945,9.945,0,0,0,2.314-.543c1.178-.465.035-.914-.575-.72-.877.278-2.612,1.134-2.023.422s2.157-1.354,2.581-2.242c.17-.354.194-.594-.15-.738-.792-.334-1.883,1.607-2.354,2.282-.043.058-.471.889-.623.548a2.9,2.9,0,0,1,.219-.982C1460.065,1594.11,1460.8,1592.3,1459.994,1591.9Z" transform="translate(-1429.428 -1574.108)" fill="#ac1936" fill-rule="evenodd"/><path d="M1459.366,1619.524c-.587-.436-.724,1.764-.781,3.094l.419.545a7.048,7.048,0,0,1,.205-.725c.23-.705.963-2.517.156-2.914Zm-1.878,1.65a2.334,2.334,0,0,0-.451-.866,1.294,1.294,0,0,0-.36-.206l.811,1.072Zm2.482,3.227c-.128-.161-.275-.346-.436-.553a17.327,17.327,0,0,0,2.026-.7c.61-.194,1.753.255.577.72a10.644,10.644,0,0,1-2.167.532Zm-.534-.68-.219-.282a2.937,2.937,0,0,0,.4-.567c.472-.675,1.563-2.615,2.354-2.282.342.145.318.383.151.738-.424.888-1.982,1.518-2.582,2.242A.751.751,0,0,0,1459.436,1623.721Z" transform="translate(-1429.875 -1587.039)" fill="#ac1936" fill-rule="evenodd"/><path d="M1445.932,1576.7c-.744-.551-.767,3.1-.815,3.9-.407.37-1.022-2.73-1.515-3.115-.728-.564-1.175-.07-.623.915.385.687,1.691,1.754,1.632,2.529-.166.22-1.5-.892-2.3-1.169-.508-.174-.948.123-.393.665.984.962,3.169,1.207,4.465,1.166a10,10,0,0,0,2.317-.542c1.175-.468.032-.916-.577-.721-.875.279-2.61,1.135-2.021.423s2.157-1.354,2.581-2.242c.168-.354.192-.594-.151-.738-.791-.333-1.881,1.606-2.355,2.28-.041.06-.469.891-.623.55a2.939,2.939,0,0,1,.219-.983C1446,1578.906,1446.736,1577.094,1445.932,1576.7Z" transform="translate(-1422.845 -1566.99)" fill="#ac1936" fill-rule="evenodd"/><path d="M1447.048,1604.317c-.426-.315-.616.759-.708,1.878l.7.6c.282-.837.677-2.146.007-2.476Zm1.761,4.655a8.733,8.733,0,0,0,1.01-.31c1.176-.464.032-.913-.577-.719-.265.084-.609.223-.943.352l.51.677Zm-.909-1.2-.363-.469c.541-.826,1.438-2.2,2.114-1.918.342.144.319.383.149.738C1449.5,1606.764,1448.6,1607.268,1447.9,1607.773Z" transform="translate(-1425.035 -1579.92)" fill="#ac1936" fill-rule="evenodd"/><path d="M1470.864,1585.575c-.006.185-.012.337-.018.441-.152.136-.332-.206-.524-.712l-.7-.339a2.362,2.362,0,0,1,.719,1.382c-.166.218-1.5-.894-2.3-1.17-.509-.174-.947.124-.394.662.986.962,3.168,1.207,4.467,1.167a7.079,7.079,0,0,0,1.082-.181l-.921-.5c-.459.156-.734.187-.443-.166l.041-.05-.291-.157c-.115.134-.233.2-.3.056a.5.5,0,0,1,0-.214l-.241-.13Z" transform="translate(-1434.89 -1570.887)" fill="#ac1936" fill-rule="evenodd"/><path d="M1469.643,1607.184c-.741-.551-.765,3.1-.813,3.9-.407.371-1.02-2.73-1.516-3.114-.726-.567-1.173-.07-.62.915.383.685,1.688,1.752,1.631,2.53-.166.219-1.5-.894-2.3-1.17-.508-.174-.948.124-.394.663.986.962,3.169,1.207,4.466,1.167a9.934,9.934,0,0,0,2.316-.545c1.176-.465.033-.914-.577-.721-.875.281-2.61,1.136-2.021.423s2.157-1.354,2.582-2.242c.167-.353.193-.592-.151-.738-.789-.334-1.883,1.608-2.354,2.28-.042.06-.471.89-.625.552a2.986,2.986,0,0,1,.219-.985C1469.717,1609.393,1470.45,1607.58,1469.643,1607.184Z" transform="translate(-1433.946 -1581.262)" fill="#ac1936" fill-rule="evenodd"/><path d="M1470.8,1634.8c-.373-.278-.565.51-.669,1.464l.708.873c.276-.837.595-2.025-.039-2.337Zm1.892,4.62a7.557,7.557,0,0,0,.878-.276c1.178-.465.034-.914-.575-.721-.242.077-.548.2-.852.317l.549.679Zm-.979-1.208-.389-.478c.545-.831,1.418-2.146,2.08-1.868.343.146.318.385.148.738A5.584,5.584,0,0,1,1471.709,1638.217Z" transform="translate(-1436.171 -1594.193)" fill="#ac1936" fill-rule="evenodd"/><g transform="translate(39.682 19.454)"><path d="M1486.858,1595.072c-.431.56-.454,3.187-.495,3.849-.407.371-1.021-2.73-1.516-3.113-.726-.566-1.171-.073-.62.914.383.686,1.688,1.753,1.631,2.53-.167.219-1.5-.894-2.3-1.171-.508-.174-.948.125-.4.664.988.962,3.17,1.207,4.468,1.168a10.167,10.167,0,0,0,2.316-.544c1.175-.465.032-.917-.577-.72-.875.278-2.612,1.136-2.022.422.534-.645,1.828-1.214,2.4-1.959-.288-.238-.575-.467-.873-.687a12.454,12.454,0,0,0-1.455,1.946c-.041.06-.469.89-.622.55a2.974,2.974,0,0,1,.219-.983,5.774,5.774,0,0,0,.491-2.455C1487.3,1595.346,1487.082,1595.209,1486.858,1595.072Z" transform="translate(-1481.837 -1595.072)" fill="#ac1936" fill-rule="evenodd"/><path d="M1485.162,1622.552c-.742-.552-.767,3.1-.814,3.9-.407.372-1.021-2.73-1.516-3.113-.728-.564-1.172-.072-.619.914.383.687,1.688,1.752,1.631,2.53-.166.218-1.5-.894-2.3-1.17-.508-.175-.946.123-.393.663.985.962,3.169,1.206,4.467,1.167a10.018,10.018,0,0,0,2.316-.545c1.176-.465.033-.914-.577-.72-.876.279-2.612,1.134-2.021.423s2.155-1.354,2.58-2.243c.169-.354.193-.594-.149-.738-.791-.333-1.883,1.608-2.356,2.281-.042.061-.469.89-.623.549a2.883,2.883,0,0,1,.219-.982C1485.236,1624.761,1485.966,1622.948,1485.162,1622.552Z" transform="translate(-1480.893 -1607.911)" fill="#ac1936" fill-rule="evenodd"/><path d="M1484.253,1650.174c-.621-.461-.739,2.013-.789,3.3l.406.5a4.5,4.5,0,0,1,.226-.887c.23-.705.962-2.516.158-2.912Zm-1.681,2.211a4.2,4.2,0,0,0-.649-1.428c-.286-.223-.527-.28-.683-.21l1.332,1.638Zm2.186,2.674-.748-.914c.19-.061.457-.577.491-.623.473-.677,1.564-2.616,2.355-2.282.342.145.318.384.149.737-.424.889-1.98,1.519-2.579,2.243s1.145-.142,2.02-.424c.611-.193,1.753.256.577.721A10.263,10.263,0,0,1,1484.758,1655.059Z" transform="translate(-1481.055 -1620.842)" fill="#ac1936" fill-rule="evenodd"/><path d="M1496.828,1610.214c-.741-.552-.767,3.1-.813,3.9-.408.37-1.022-2.73-1.517-3.114-.726-.566-1.173-.071-.62.915.383.685,1.687,1.753,1.631,2.53-.166.219-1.5-.894-2.3-1.169-.508-.176-.947.123-.393.663.988.961,3.171,1.206,4.468,1.167a10.047,10.047,0,0,0,2.316-.545c1.176-.465.032-.914-.577-.719-.874.278-2.612,1.135-2.022.421s2.155-1.354,2.579-2.242c.17-.354.194-.593-.147-.738-.792-.334-1.883,1.605-2.357,2.282-.041.058-.469.888-.623.548a2.96,2.96,0,0,1,.219-.983C1496.9,1612.42,1497.634,1610.609,1496.828,1610.214Z" transform="translate(-1486.355 -1602.135)" fill="#ac1936" fill-rule="evenodd"/><path d="M1494.813,1637.834c-.742-.551-.767,3.1-.813,3.9-.409.371-1.022-2.731-1.516-3.114-.728-.565-1.173-.072-.621.914.385.687,1.689,1.753,1.633,2.53-.168.219-1.5-.892-2.3-1.169-.509-.176-.947.123-.394.662.986.962,3.17,1.207,4.466,1.167a9.968,9.968,0,0,0,2.318-.544c1.176-.466.033-.914-.579-.719-.875.279-2.61,1.135-2.02.421s2.155-1.354,2.58-2.243c.169-.354.193-.593-.149-.738-.791-.333-1.883,1.607-2.355,2.282-.041.058-.469.888-.625.547a2.969,2.969,0,0,1,.221-.982C1494.887,1640.042,1495.618,1638.229,1494.813,1637.834Z" transform="translate(-1485.412 -1615.065)" fill="#ac1936" fill-rule="evenodd"/><path d="M1495.96,1665.455c-.38-.28-.572.536-.674,1.51.267.313.506.59.713.825.277-.838.6-2.024-.039-2.335Zm1.946,4.606a7.746,7.746,0,0,0,.825-.261c1.178-.464.032-.915-.577-.721-.215.07-.484.175-.758.281.169.219.34.452.51.7Zm-.958-1.245c-.1-.115-.2-.226-.3-.325l-.135-.141c.546-.831,1.4-2.1,2.056-1.827.342.146.319.382.148.738A5.267,5.267,0,0,1,1496.948,1668.815Z" transform="translate(-1487.631 -1627.996)" fill="#ac1936" fill-rule="evenodd"/><path d="M1510.891,1625.419c-.741-.552-.765,3.1-.814,3.9-.407.371-1.022-2.73-1.515-3.113-.729-.565-1.172-.07-.621.914.384.687,1.688,1.754,1.631,2.53-.166.219-1.5-.894-2.3-1.169-.508-.174-.948.123-.394.664.985.96,3.169,1.207,4.466,1.166a9.9,9.9,0,0,0,2.316-.545c1.176-.463.032-.914-.577-.719-.875.28-2.611,1.135-2.021.421s2.157-1.352,2.581-2.243c.168-.353.191-.592-.15-.735-.791-.335-1.881,1.605-2.355,2.28-.041.06-.469.89-.623.549a3,3,0,0,1,.219-.984C1510.964,1627.626,1511.7,1625.815,1510.891,1625.419Z" transform="translate(-1492.939 -1609.253)" fill="#ac1936" fill-rule="evenodd"/><path d="M1508.875,1653.038c-.743-.55-.767,3.1-.812,3.9-.408.371-1.022-2.729-1.517-3.114-.727-.565-1.172-.071-.621.914.385.688,1.69,1.755,1.633,2.531-.166.22-1.5-.893-2.3-1.171-.508-.174-.946.123-.393.665.988.962,3.17,1.206,4.467,1.165a9.979,9.979,0,0,0,2.317-.544c1.175-.464.031-.913-.577-.721-.875.281-2.612,1.137-2.022.423s2.155-1.352,2.58-2.243c.17-.352.194-.592-.149-.736-.791-.333-1.883,1.606-2.355,2.281-.042.059-.469.889-.623.549a2.893,2.893,0,0,1,.219-.984C1508.949,1655.246,1509.68,1653.435,1508.875,1653.038Z" transform="translate(-1491.995 -1622.183)" fill="#ac1936" fill-rule="evenodd"/><path d="M1507.867,1680.661c-.743-.552-.765,3.1-.815,3.9-.408.37-1.021-2.732-1.515-3.115-.37-.286-.666-.3-.8-.117.375.72.755,1.472,1.139,2.24a2.239,2.239,0,0,1,.67,1.322l-.01.008.289.583a10.168,10.168,0,0,0,1.492.068,9.91,9.91,0,0,0,2.317-.544c1.176-.464.033-.912-.577-.719-.876.279-2.612,1.135-2.023.421s2.157-1.352,2.581-2.242c.169-.352.194-.593-.149-.737-.791-.333-1.883,1.606-2.355,2.281-.043.059-.469.89-.625.549a2.979,2.979,0,0,1,.219-.984C1507.938,1682.868,1508.671,1681.056,1507.867,1680.661Z" transform="translate(-1492.058 -1635.115)" fill="#ac1936" fill-rule="evenodd"/><path d="M1534.606,1655.905c-.745-.551-.767,3.1-.815,3.9-.407.37-1.022-2.73-1.517-3.115-.726-.565-1.171-.07-.62.917.384.686,1.688,1.754,1.633,2.529-.168.218-1.5-.893-2.3-1.169-.508-.177-.947.123-.393.662.986.962,3.168,1.207,4.467,1.168a10.118,10.118,0,0,0,2.314-.545c1.177-.466.035-.915-.577-.721-.875.279-2.61,1.137-2.021.423s2.157-1.354,2.581-2.242c.169-.355.192-.6-.149-.738-.793-.334-1.883,1.605-2.357,2.282-.041.058-.469.888-.623.547a2.989,2.989,0,0,1,.219-.982C1534.678,1658.112,1535.411,1656.3,1534.606,1655.905Z" transform="translate(-1504.041 -1623.525)" fill="#ac1936" fill-rule="evenodd"/><path d="M1532.591,1683.526c-.745-.551-.768,3.1-.815,3.9-.407.37-1.022-2.729-1.517-3.115-.728-.564-1.172-.07-.621.916.385.687,1.689,1.753,1.633,2.53-.166.219-1.5-.892-2.3-1.169-.509-.175-.946.123-.394.661.986.963,3.17,1.209,4.468,1.168a6.871,6.871,0,0,0,1.029-.169l.311-.953c-.907.343-2.13.9-1.623.281a22.6,22.6,0,0,1,2.037-1.579l.438-1.381-.044-.021c-.791-.334-1.881,1.607-2.355,2.282-.041.059-.469.888-.623.548a2.943,2.943,0,0,1,.219-.982C1532.662,1685.732,1533.395,1683.92,1532.591,1683.526Z" transform="translate(-1503.096 -1636.456)" fill="#ac1936" fill-rule="evenodd"/><path d="M1528.7,1712.222a.294.294,0,0,0-.282.151A2.986,2.986,0,0,0,1528.7,1712.222Z" transform="translate(-1503.143 -1649.917)" fill="#ac1936" fill-rule="evenodd"/><path d="M1520.542,1640.7c-.741-.551-.765,3.1-.813,3.9-.407.372-1.022-2.73-1.517-3.113-.728-.565-1.171-.07-.619.914.383.686,1.688,1.754,1.631,2.532-.166.218-1.5-.893-2.3-1.171-.507-.175-.947.123-.394.664.986.963,3.17,1.207,4.468,1.167a10.1,10.1,0,0,0,2.316-.544c1.177-.465.032-.915-.576-.72-.875.279-2.61,1.134-2.022.422s2.157-1.354,2.58-2.242c.169-.354.193-.595-.149-.738-.791-.333-1.881,1.605-2.353,2.28-.043.06-.471.89-.625.549a2.944,2.944,0,0,1,.219-.983C1520.614,1642.908,1521.348,1641.1,1520.542,1640.7Z" transform="translate(-1497.457 -1616.407)" fill="#ac1936" fill-rule="evenodd"/><path d="M1518.527,1668.323c-.743-.551-.767,3.1-.813,3.9-.409.37-1.022-2.73-1.517-3.115-.727-.564-1.172-.07-.621.914.385.688,1.69,1.754,1.633,2.532-.166.219-1.5-.892-2.3-1.17-.508-.175-.947.125-.394.664.988.962,3.17,1.207,4.468,1.166a10.057,10.057,0,0,0,2.314-.542c1.177-.466.035-.917-.575-.721-.877.279-2.612,1.134-2.022.422s2.156-1.354,2.58-2.242c.167-.354.193-.593-.149-.738-.791-.334-1.883,1.605-2.355,2.279-.043.061-.469.891-.623.549a2.923,2.923,0,0,1,.219-.983C1518.6,1670.529,1519.332,1668.718,1518.527,1668.323Z" transform="translate(-1496.513 -1629.338)" fill="#ac1936" fill-rule="evenodd"/><path d="M1517.456,1695.943c-.743-.551-.767,3.1-.815,3.9-.407.37-1.022-2.729-1.515-3.115-.728-.565-1.173-.071-.621.916.383.687,1.689,1.752,1.633,2.53-.1.129-.6-.2-1.154-.551q.318.526.637,1.016a10.384,10.384,0,0,0,2.289.2,10.089,10.089,0,0,0,2.316-.545c1.177-.466.034-.916-.577-.72-.875.279-2.611,1.135-2.023.422s2.158-1.354,2.582-2.242c.168-.355.194-.594-.15-.738-.791-.334-1.883,1.605-2.356,2.28-.041.06-.469.89-.623.549a2.985,2.985,0,0,1,.219-.983C1517.527,1698.149,1518.26,1696.338,1517.456,1695.943Z" transform="translate(-1496.513 -1642.269)" fill="#ac1936" fill-rule="evenodd"/><path d="M1542.189,1649.328c-.228.082-.29.331.07.683a2.858,2.858,0,0,0,.717.492C1542.734,1650.107,1542.469,1649.715,1542.189,1649.328Z" transform="translate(-1509.502 -1620.473)" fill="#ac1936" fill-rule="evenodd"/><path d="M1542.6,1674.005a4.533,4.533,0,0,0-.678-1.5c-.728-.565-1.171-.07-.62.914a12.636,12.636,0,0,0,1.02,1.278c.1-.231.188-.46.278-.688Zm-.609,1.52c-.086.226-.172.463-.261.712a3.678,3.678,0,0,1-1.49-.8c-.553-.54-.114-.838.393-.663A7.941,7.941,0,0,1,1541.995,1675.525Z" transform="translate(-1508.558 -1631.209)" fill="#ac1936" fill-rule="evenodd"/></g></g><path d="M1375.225,1492.47c.881.2,1.922,4.169,8.916,4.431,9.6.362,7.68,1.273,8.781,10.222.495,4.025-1.281,16.19,8.373,18.106,5.947,1.18,9.378.434,10.64,6.632a26.009,26.009,0,0,0,4.417,9.15c.811,4.74,16.34,9.849,22.569-3.985,4.01-8.911,4.452-18.529-2.566-25.946-4.307-4.553-11.472-1.571-15.558-6.984-8.478-11.224.685-12.061-17.98-24.01C1390.067,1471.926,1370.545,1478.2,1375.225,1492.47Z" transform="translate(-1341.123 -1444.218)" fill="#191919" fill-rule="evenodd"/><path d="M1439.885,1516.908c-.414.331-.8.67-1.174,1.021a19.35,19.35,0,0,1-2.448,5.753,8.127,8.127,0,0,1,1.2,2.095,9.193,9.193,0,0,1,2.514,1.669,11.2,11.2,0,0,1,1.558,1.784,29.129,29.129,0,0,1-.783,3.6,10.9,10.9,0,0,0-2.328-3.446,10.32,10.32,0,0,1-.337,4.573h.012a7.122,7.122,0,0,0,2.5-.609q-.436,1.455-1.015,2.9a7.9,7.9,0,0,1-1.4.182,6.891,6.891,0,0,1-1.267-.067,11.05,11.05,0,0,1-1.91,2.135q1.222.821,2.679,1.625a15.99,15.99,0,0,1-1.482,2.011,36.648,36.648,0,0,1-3.345-2.1,19.992,19.992,0,0,1-3.113,1.48,27.51,27.51,0,0,1-4.3,1.215,17.593,17.593,0,0,0,3.579,2.373c.583.294,1.188.566,1.813.812a13.465,13.465,0,0,1-3.968.833,18.192,18.192,0,0,1-4.461-3.544,42.838,42.838,0,0,1-5.174.266,3.517,3.517,0,0,1-.878-1.676c-.188-.268-.38-.546-.57-.83a41.9,41.9,0,0,0,4.631-.057,36.34,36.34,0,0,1-4.808-.2c-.563-.858-1.119-1.771-1.628-2.722a32.96,32.96,0,0,0,5.82.468,7.52,7.52,0,0,1,.406-4.767,13.352,13.352,0,0,1-7.67,1.08,15.786,15.786,0,0,1-.6-2.117q-.066-.323-.139-.621a11.582,11.582,0,0,0,9.6-1.924,17.013,17.013,0,0,1-5.348-1.776,34.965,34.965,0,0,0-4.112,3.342l-.188.182a8.316,8.316,0,0,0-1.01-2.444,37.723,37.723,0,0,1,3.078-2.522,11.337,11.337,0,0,1-4.731-8.9c0-.106,0-.214,0-.322a38.921,38.921,0,0,1-9.638,4.1h-.01l-.212.213a17.446,17.446,0,0,0,3.2,4.247c-.366-.063-.742-.132-1.13-.21a9.55,9.55,0,0,1-3.38-1.332c-.169-.249-.328-.5-.479-.746l-.2.254c-3.541-2.854-4.034-8.082-4.156-12.1l.053.188a4.111,4.111,0,0,0,.825,1.506,19.712,19.712,0,0,1,7.09-7.309,13.765,13.765,0,0,1-1.552-2.557,14.451,14.451,0,0,1-1.331-5.411q-.56.709-1.073,1.438a12.548,12.548,0,0,1-2.732,4.726,16.986,16.986,0,0,0-1.356,4.3c-.017-.4-.043-.76-.08-1.072-.255-2.071-.347-3.71-.459-5.015a31.871,31.871,0,0,1,2.37-4.023c.111-.363.21-.739.3-1.133a11.966,11.966,0,0,0,.288-2.088q-.973.157-1.881.217a17.382,17.382,0,0,1-2.337,3.109,5.115,5.115,0,0,0-2.571-.946,14.623,14.623,0,0,0,1.992-2.222,12.935,12.935,0,0,1-1.9-.366,22.559,22.559,0,0,1-6.593-.4,17.433,17.433,0,0,0-1.858,1.876l-.073.087a8.82,8.82,0,0,1-2.259-1.14q.219-.278.445-.545.5-.59,1.042-1.133a11.42,11.42,0,0,1-1.1-.54,7.88,7.88,0,0,1-3.8-4.225,10.464,10.464,0,0,1,4.984-9.226,14.581,14.581,0,0,0-1.322,1.972,14.341,14.341,0,0,0-.787,1.618q.355-.224.731-.449,1.374-.815,2.639-1.424a22.6,22.6,0,0,1,.332-2.643,17.509,17.509,0,0,1,2.775-1.107,21.6,21.6,0,0,0-.523,2.676c3.564-1.236,6.349-1.118,8.372-.127a7.506,7.506,0,0,1,4,6.414,12.581,12.581,0,0,1-.085,2.843l.068.055a5.664,5.664,0,0,1,.741.729,11.765,11.765,0,0,0,1.6-1.054c2.747-2.184,3.624-5.523.217-9.81a15.186,15.186,0,0,0-1.647-1.771,23.127,23.127,0,0,1,4.772,1.912,10.986,10.986,0,0,1,1.54,3.759,14.327,14.327,0,0,1,1.541-1.845q1.124.747,2.1,1.434a10.826,10.826,0,0,0-2.146,2.847,17.178,17.178,0,0,1,2.723-1.471,4.974,4.974,0,0,0-.3-1.177c1.359.969,2.506,1.854,3.474,2.675-.27.076-.536.157-.793.243-.026.13-.053.261-.087.389.4-.137.8-.256,1.2-.361a26.008,26.008,0,0,1,2.2,2.117,16.173,16.173,0,0,0-5.8,2.045,13.953,13.953,0,0,1-2.561,1.839l.036.07c1.5,2.869,4.689,5.42,8.4,7.219a28.14,28.14,0,0,0,2.867,1.2c.192-.026.38-.051.566-.073q.546-.842,1.15-1.65a25.116,25.116,0,0,0,3.3,5.588,8.225,8.225,0,0,0,1.913,1.848q-.74.55-1.467,1.028-.886.958-1.821,1.854a17.473,17.473,0,0,1,9.816,3.6,12.862,12.862,0,0,0-1-4.5l-.028-.063c.948.169,1.9.32,2.828.525a17.493,17.493,0,0,1,.64,6.28c.077.084.153.171.23.257a25.514,25.514,0,0,1,2.882-1.966c.717-.421,1.457-.808,2.21-1.159a19.867,19.867,0,0,1,2.879,4.34Zm-56.688-33.395a11.592,11.592,0,0,0,1.927,6.616,18.026,18.026,0,0,1,2.049-.827,11.28,11.28,0,0,1,6.1-.469,9.882,9.882,0,0,0-.012-1.508,5.138,5.138,0,0,0-2.626-4.41c-1.654-.809-4.108-.772-7.442.6Zm-.247,7.824a13.623,13.623,0,0,1-2.172-6.676c-.449.241-.911.5-1.383.784a27.323,27.323,0,0,0-2.681,1.806,5.073,5.073,0,0,0,2.821,4.224,10.582,10.582,0,0,0,2,.847c.46-.352.931-.679,1.41-.986Zm4.092.651a7.949,7.949,0,0,0,1.939.934,22.584,22.584,0,0,0,3.526-.637c.125-.338.238-.679.334-1.019a8.661,8.661,0,0,0-4.9.389q-.45.148-.9.332Zm11.588.318c.248-.08.5-.164.754-.252.068-.15.138-.3.212-.444l-.015.01q-.452.36-.95.686Zm6.968-3.67a7.1,7.1,0,0,0,.5-.555,12.643,12.643,0,0,0-1.751,1.327q.622-.409,1.253-.772Zm-10.818,31.463c.343-.034.685-.075,1.028-.125a9.768,9.768,0,0,1-.217-2.413c-.146-.042-.288-.087-.427-.137a11.471,11.471,0,0,0-.385,2.676Zm18.123-4.957c-.358.262-.722.521-1.089.772a8.221,8.221,0,0,0-.259,2.056,9.176,9.176,0,0,0,4.432,7.416,34.254,34.254,0,0,1,6.16-3.114,25.572,25.572,0,0,1,2.864-.905c-6.33-1.2-9.736-3.768-11.144-6.948-.317.245-.638.486-.962.723Zm3.653-2.986q-.3.272-.606.542c.972,2.869,3.9,5.235,9.852,6.3a17.2,17.2,0,0,0,2.513.267c.1-.128.2-.257.31-.383q.105-.416.2-.832.182-.855.289-1.708a15.273,15.273,0,0,0-5.955-3.58,15.655,15.655,0,0,0-6.6-.6Zm-14.108-18.193q-.768.672-1.5,1.4l-.1.1a11.914,11.914,0,0,0,.874,7.4,11.1,11.1,0,0,0,1.476,2.352q1.07-.562,2.258-1.082a48.017,48.017,0,0,1,6.119-2.229c-3.947-1.958-7.372-4.743-9.135-7.94Zm-3.924,21.613a20.61,20.61,0,0,0,4.789-.378,32.938,32.938,0,0,1,6.943-3.926,12.4,12.4,0,0,1-4.053-.866,12.042,12.042,0,0,1-2.092-1.09,16.688,16.688,0,0,0-3.844,3.235,9,9,0,0,0-1.743,3.025Zm1.266,2.461c-.571.011-1.116,0-1.631-.036a7.8,7.8,0,0,0,.154,1.4q.742-.709,1.477-1.362Zm6.868-10.125c.154.07.308.137.466.2a10.631,10.631,0,0,0,6.095.464c.018-.124.039-.251.062-.378a16.356,16.356,0,0,1,.8-2.856c-.876.206-1.744.439-2.6.7a34.019,34.019,0,0,0-4.825,1.871Zm10.349-3.14c-.151.317-.293.635-.423.954q.722-.557,1.524-1.113-.552.072-1.1.159Zm16.786,13.449a9.587,9.587,0,0,0,2.758-1.933c.057-.265.106-.532.154-.806-.222.12-.445.245-.662.373a23.162,23.162,0,0,0-2.623,1.79c.129.19.252.381.373.575Zm-15.271,8.514a14.522,14.522,0,0,0,5.413,1.081c.121-.135.241-.272.359-.41q.477-.561.912-1.163a12.415,12.415,0,0,1,.615-2.531,23.132,23.132,0,0,0-2.8.872,30.691,30.691,0,0,0-4.5,2.151Zm10.2,2.815c-.269.087-.539.168-.814.238a12.233,12.233,0,0,0,3.159,5.433,9.154,9.154,0,0,0,1.545-1.837,9.787,9.787,0,0,1-1.244-5.008,14.267,14.267,0,0,1-2.646,1.174Zm2.531-4.062c.171-.13.342-.265.51-.407.1-.445.232-.9.381-1.346a7.818,7.818,0,0,0-2.423-.458,24.115,24.115,0,0,1-2.04,3.743l.938-.479a14.538,14.538,0,0,1,2.634-1.052Zm-8.9,12.832c.623-.05,1.25-.114,1.885-.2a13.928,13.928,0,0,0,4.753-1.445,14.626,14.626,0,0,1-3.37-5.582c-3.117,2.291-3.949,4.856-3.268,7.225Zm13.457-5.857c-.081.219-.166.435-.259.647l.067.055a7.187,7.187,0,0,0,.191-.7Zm-1.491,2.828a11.447,11.447,0,0,1-1.423,1.63l.022.019a9.3,9.3,0,0,0,1.524-1.56l-.123-.089Zm-.36-5.376a12.012,12.012,0,0,0,.2-2.334c-.1,0-.2,0-.3,0-.015.213-.024.428-.025.637A9.207,9.207,0,0,0,1433.957,1529.916Z" transform="translate(-1341.123 -1444.986)" fill="#4c3926"/></g></g></g></g></g></svg>